<svg width="1366" height="768" viewBox="0 0 1366 768" fill="none" xmlns="http://www.w3.org/2000/svg">
<g clip-path="url(#clip0_604_49)">
<path d="M1668.41 289.81C1549.47 314.566 1618.2 322.78 1430.99 346.007C1369.54 354.263 1344.52 376.84 1238.66 319.604C1171.84 282.263 1129.85 249.49 1071.7 228.13C929.362 182.079 950.681 304.936 719.373 442.937C657.412 479.406 617.902 498.603 568.692 541.857C511.035 594.798 477.136 645.334 395.335 644.046C316.339 639.063 253.538 592.124 172.047 581.147C77.4346 572.259 7.52807 635.5 -122.412 662.545" stroke="#FAFAFD" stroke-opacity="0.5" stroke-width="0.286519" stroke-linecap="round" stroke-linejoin="round"/>
<path d="M1668.41 289.81C1573.16 310.01 1589.05 327.973 1477.51 345.067C1362.87 361.536 1346.97 377.954 1256.88 332.318C1193.54 298.708 1148.83 263.069 1088.99 236.369C936.733 173.955 957.631 291.106 719.771 444.829C657.045 484.734 617.96 506.585 570.13 548.749C511.318 602.596 477.493 650.678 396.196 648.167C316.772 642.018 254.17 594.663 172.48 583.21C78.3621 573.856 9.46196 635.05 -122.408 662.55" stroke="#FAFAFD" stroke-opacity="0.5" stroke-width="0.286519" stroke-linecap="round" stroke-linejoin="round"/>
<path d="M1668.41 289.81C1574.27 309.862 1590.27 329.718 1478.43 349.497C1364.67 368.4 1348 380.453 1266.32 340.322C1202.33 307.02 1159.37 271.713 1097.94 241.936C943.68 172.437 963.623 277.862 713.355 451.416C643.687 498.834 605.925 523.193 558.51 567.727C495.168 628.453 457.849 663.909 373.03 649.063C291.345 631.744 229.191 585.159 149.253 583.816C66.8103 586.295 -2.82617 637.667 -122.409 662.545" stroke="#FAFAFD" stroke-opacity="0.5" stroke-width="0.286519" stroke-linecap="round" stroke-linejoin="round"/>
<path d="M1668.41 289.81C1577.58 309.131 1595.58 327.316 1494.28 350.816C1460.59 358.082 1445.85 359.301 1411.69 365.453C1363.98 374.647 1339.87 378.724 1275.77 348.317C1212.92 316.574 1169.81 280.514 1106.96 247.904C990.971 191.121 957.802 238.936 885.89 307.882C763.869 423.398 728.355 440.973 632.842 513.439C502.91 613.186 481.523 691.339 332.437 641.072C245.039 609.864 193.548 574.87 111.576 589.832C27.9585 607.574 -7.28812 638.608 -122.412 662.545" stroke="#FAFAFD" stroke-opacity="0.5" stroke-width="0.286519" stroke-linecap="round" stroke-linejoin="round"/>
<path d="M1668.41 289.81C1557.88 313.524 1633.18 328.3 1405.31 372.246C1285.17 395.979 1210.22 296.622 1090.04 241.443C962.234 187.55 953.455 259.415 747.61 428.976C590.131 556.839 692.572 466.312 528.663 611.347C376.701 740.91 277.189 573.182 126.998 589.108C48.0057 600.356 -3.74824 637.877 -122.409 662.545" stroke="#FAFAFD" stroke-opacity="0.5" stroke-width="0.286519" stroke-linecap="round" stroke-linejoin="round"/>
<path d="M1668.41 289.81C1561.01 313.015 1619.4 338.542 1391.45 380.421C1284.92 395.805 1194.09 287.245 1081.84 239.48C978.413 199.635 945.224 251.136 839.672 347.652C700.939 473.588 682.946 482.781 589.008 564.663C534.809 612.536 513.196 638.412 468.056 656.806C369.989 690.803 288.043 613.909 182.249 592.752C86.1914 577.211 30.1576 630.843 -122.411 662.551" stroke="#FAFAFD" stroke-opacity="0.5" stroke-width="0.286519" stroke-linecap="round" stroke-linejoin="round"/>
<path d="M1668.41 289.81C1565.23 312.316 1602.93 348.424 1392.48 385.381C1289.46 399.333 1200.55 295.803 1090.59 244.095C1006.94 207.974 969.355 230.458 911.346 280.611C407.363 721.014 523.734 717.962 232.276 608.695C99.2374 561.577 60.992 624.551 -122.411 662.551" stroke="#FAFAFD" stroke-opacity="0.5" stroke-width="0.286519" stroke-linecap="round" stroke-linejoin="round"/>
<path d="M1668.41 289.81C1591.45 306.774 1592.93 334.374 1497.6 366.773C1377.4 404.918 1342.25 392.808 1296.18 371.561C1161.84 304.496 1059.59 168.037 937.713 257.612C825.7 345.058 684.616 502.074 539.475 625.899C414.432 729.054 341.43 643.839 207.604 602.357C96.0005 571.143 59.8521 624.913 -122.408 662.55" stroke="#FAFAFD" stroke-opacity="0.5" stroke-width="0.286519" stroke-linecap="round" stroke-linejoin="round"/>
<path d="M1668.41 289.81C1592.72 306.653 1588.25 339.881 1491.14 373.173C1320.59 427.747 1312.36 382.28 1134.96 270.21C998.817 187.502 955.898 219.43 761.004 418.522C522.975 665.141 484.817 699.665 377.737 671.697C293.754 646.964 232.068 598.347 151.457 594.42C72.5734 594.19 19.7328 633.287 -122.412 662.545" stroke="#FAFAFD" stroke-opacity="0.5" stroke-width="0.286519" stroke-linecap="round" stroke-linejoin="round"/>
<path d="M1668.41 289.81C1594.3 306.473 1587.55 342.084 1491.99 377.249C1323.63 435.143 1308.54 382.574 1135.24 271.561C1012.98 196.237 960.247 209.608 786.505 391.432C639.014 547.664 536.378 686.387 427.038 684.151C297.643 675.103 236.463 564.998 76.2463 607.112C-3.4555 629.233 -13.7755 640.261 -122.411 662.551" stroke="#FAFAFD" stroke-opacity="0.5" stroke-width="0.286519" stroke-linecap="round" stroke-linejoin="round"/>
<path d="M1668.41 289.81C1595.56 306.358 1587.42 344.081 1492.83 381.309C1326.69 442.4 1303.05 381.707 1135.51 272.85C1018.29 199.657 956.977 205.007 786.31 390.492C672.471 515.618 560.318 675.427 451.298 688.494C328.215 696.434 242.824 574.5 98.7432 602.983C20.8772 620.124 6.54796 636.168 -122.413 662.54" stroke="#FAFAFD" stroke-opacity="0.5" stroke-width="0.286519" stroke-linecap="round" stroke-linejoin="round"/>
<path d="M1668.41 289.81C1588.04 308.311 1568.45 371.947 1435.03 402.802C1314.79 428.906 1275.18 365.529 1135.57 273.157C1028.08 204.798 979.712 216.252 889.427 287.446C744.369 405.032 673.848 564.42 531.836 664.004C382.9 761.788 276.789 583.502 121.505 600.125C50.9145 610 15.4738 634.518 -122.41 662.539" stroke="#FAFAFD" stroke-opacity="0.5" stroke-width="0.286519" stroke-linecap="round" stroke-linejoin="round"/>
<path d="M1668.41 289.81C1595.21 306.907 1590.11 346.684 1494.38 388.766C1326.51 457.634 1297.16 378.056 1126.63 267.631C1051.95 221.274 1003.28 212.127 936.341 251.022C734.249 375.739 639.89 666.639 468.748 697.525C345.653 712.701 249.948 583.473 114.142 602.163C46.6904 613.419 14.181 634.865 -122.411 662.551" stroke="#FAFAFD" stroke-opacity="0.5" stroke-width="0.286519" stroke-linecap="round" stroke-linejoin="round"/>
<path d="M1668.41 289.81C1598.86 306.272 1586.41 350.28 1495.16 392.488C1329.83 463.895 1295.28 378.915 1126.67 267.813C1052.03 220.649 1003.63 211.285 935.861 248.713C732.56 368.138 656.218 664.186 477.46 701.987C356.995 720.488 256.659 593.164 129.539 601.332C60.1374 608.389 32.1551 631.177 -122.412 662.545" stroke="#FAFAFD" stroke-opacity="0.5" stroke-width="0.286519" stroke-linecap="round" stroke-linejoin="round"/>
<path d="M1668.41 289.81C1595.54 307.304 1585.84 355.45 1488.83 399.438C1323.45 469.008 1285.85 370.309 1117.73 262.227C1035.87 212.302 990.806 215.483 928.402 250.307C730.268 367.14 668.355 662.231 486.17 706.426C362.762 729.226 260.131 594.368 129.749 602.341C62.4493 609.02 37.2943 630.256 -122.411 662.551" stroke="#FAFAFD" stroke-opacity="0.5" stroke-width="0.286519" stroke-linecap="round" stroke-linejoin="round"/>
<path d="M1668.41 289.81C1598.73 306.77 1583.32 358.746 1489.63 403.27C1395.89 444.55 1351.94 427.217 1301.66 397.901C1160.81 310.248 1074.8 174.553 934.871 243.958C802.473 314.038 742.725 457.931 654.83 581.667C504.661 786.807 405.954 710.203 270.133 640.953C123.444 567.959 119.201 613.488 -122.409 662.545" stroke="#FAFAFD" stroke-opacity="0.5" stroke-width="0.286519" stroke-linecap="round" stroke-linejoin="round"/>
<path d="M1668.41 289.81C1600.28 306.709 1582.14 361.292 1490.32 406.622C1397.21 449.171 1352.33 430.329 1302.15 400.232C1160.02 309.419 1075.75 172.977 933.978 239.665C800.871 306.752 743.922 459.383 656.313 588.793C510.468 797.209 401.851 710.557 270.371 642.094C125.056 568.337 119.183 613.676 -122.409 662.545" stroke="#FAFAFD" stroke-opacity="0.5" stroke-width="0.286519" stroke-linecap="round" stroke-linejoin="round"/>
<path d="M1668.41 289.81C1600.97 306.857 1581.78 363.48 1491.02 409.98C1399.74 453.212 1353.89 434.156 1302.63 402.57C1160.53 309.396 1076.45 171.569 933.084 235.373C799.441 299.382 744.793 461.207 657.797 595.925C513.153 811.854 393.923 707.086 261.883 638.727C126.545 570.954 120.212 613.688 -122.409 662.545" stroke="#FAFAFD" stroke-opacity="0.5" stroke-width="0.286519" stroke-linecap="round" stroke-linejoin="round"/>
<path d="M1668.41 289.81C1601.41 307.056 1581.76 365.536 1491.72 413.332C1400.76 457.984 1354.05 437.115 1303.12 404.901C1157.24 306.834 1077.25 170.159 932.19 231.08C724.646 325.389 706.685 693.011 498.819 729.786C422.384 738.926 361.468 693.504 270.848 644.385C129.332 569.725 125.452 612.823 -122.409 662.545" stroke="#FAFAFD" stroke-opacity="0.5" stroke-width="0.286519" stroke-linecap="round" stroke-linejoin="round"/>
<path d="M1668.41 289.81C1598.17 308.226 1579.68 372.38 1485.37 420.263C1399.74 460.255 1354.3 442.159 1294.52 400.98C1148.22 295.352 1071.62 166.514 924.142 229.858C721.936 324.406 707.633 717.789 492.484 736.779C414.804 739.284 353.042 689.578 262.315 640.82C129.813 572.034 125.53 613.027 -122.409 662.545" stroke="#FAFAFD" stroke-opacity="0.5" stroke-width="0.286519" stroke-linecap="round" stroke-linejoin="round"/>
<path d="M1668.41 289.81C1598.63 308.45 1579.77 374.51 1486.08 423.667C1402.43 463.988 1356.73 446.628 1294.96 403.067C1147.56 294.187 1072.17 164.741 923.179 225.229C790.507 284.314 740.226 485.271 656.493 627.085C526.373 836.814 388.682 710.824 262.516 641.784C130.953 572.291 125.776 613.196 -122.409 662.545" stroke="#FAFAFD" stroke-opacity="0.5" stroke-width="0.286519" stroke-linecap="round" stroke-linejoin="round"/>
<path d="M1668.41 289.81C1599.04 308.758 1579.43 376.584 1486.67 426.511C1403.6 467.594 1357.29 449.3 1295.25 404.487C1147.67 292.879 1071.63 160.986 921.887 219.02C718.838 306.267 725.177 730.715 502.668 748.298C421.345 750.111 356.074 694.08 262.578 642.08C132.545 572.352 128.369 612.936 -122.409 662.545" stroke="#FAFAFD" stroke-opacity="0.5" stroke-width="0.286519" stroke-linecap="round" stroke-linejoin="round"/>
<path d="M1668.41 289.81C1599.97 308.933 1578.84 378.764 1487.26 429.362C1405.38 470.869 1358.86 452.727 1295.55 405.912C1147.73 291.557 1071.15 157.219 920.596 212.817C717.133 297.016 731.109 744.249 503.901 754.221C425.542 753.276 362.653 700.484 271.463 647.356C134.013 569.697 129.947 612.917 -122.409 662.545" stroke="#FAFAFD" stroke-opacity="0.5" stroke-width="0.286519" stroke-linecap="round" stroke-linejoin="round"/>
<path d="M1668.41 289.81C1600.14 309.32 1578.9 380.633 1487.86 432.212C1406.21 474.627 1358.9 455.033 1295.85 407.331C1147.13 289.719 1070.72 153.444 919.305 206.615C789.198 258.409 741.617 498.151 661.346 650.402C541.038 865.257 378.005 708.822 262.7 642.667C133.221 571.152 129.987 613.194 -122.409 662.545" stroke="#FAFAFD" stroke-opacity="0.5" stroke-width="0.286519" stroke-linecap="round" stroke-linejoin="round"/>
<path d="M1668.41 289.81C1604.32 308.515 1580.7 377.236 1495.4 431.023C1410.38 480.393 1360.82 456.465 1305.41 415.922C1159.54 303.097 1077.76 153.369 925.301 197.979C791.584 242.56 749.119 479.507 668.491 647.303C552.926 874.667 394.012 719.397 262.764 642.957C134.821 571.283 132.533 612.343 -122.408 662.545" stroke="#FAFAFD" stroke-opacity="0.5" stroke-width="0.286519" stroke-linecap="round" stroke-linejoin="round"/>
<path d="M1668.41 289.81C1603.03 309.306 1571.33 393.014 1482.04 441.631C1402.42 480.895 1355.22 458.611 1287.02 402.335C1138.85 275.354 1059.74 141.37 909.475 196.747C782.925 251.209 739.091 523.902 659.008 676.561C544.187 879.852 374.971 706.843 253.979 638.16C134.183 573.29 132.314 612.644 -122.409 662.545" stroke="#FAFAFD" stroke-opacity="0.5" stroke-width="0.286519" stroke-linecap="round" stroke-linejoin="round"/>
<path d="M1668.41 289.81C1603.62 309.613 1575.85 387.678 1489.49 440.046C1410.3 484.013 1361.31 463.154 1296.58 410.883C1145.48 283.573 1067.65 140.014 915.208 186.935C786.706 233.624 745.418 507.786 666.192 673.685C555.71 889.451 383.045 714.596 262.742 642.872C135.505 570.088 132.272 612.974 -122.409 662.545" stroke="#FAFAFD" stroke-opacity="0.5" stroke-width="0.286519" stroke-linecap="round" stroke-linejoin="round"/>
<path d="M1668.41 289.81C1604.21 309.889 1575.47 389.364 1489.95 442.269C1408.73 488.249 1358.94 462.953 1296.75 411.681C1148.95 284.571 1060.89 127.081 906.486 182.386C785.644 234.428 745.058 515.267 667.809 681.438C558.438 900.244 382.499 711.664 253.842 637.486C133.989 571.724 132.053 613.341 -122.408 662.545" stroke="#FAFAFD" stroke-opacity="0.5" stroke-width="0.286519" stroke-linecap="round" stroke-linejoin="round"/>
<path d="M1668.41 289.81C1603.88 310.474 1575.9 390.6 1490.41 444.487C1410.96 490.33 1361.31 466.652 1296.92 412.474C1148.95 282.667 1058.79 120.827 904.992 175.208C782.402 227.965 742.735 539.019 663.964 700.374C557.693 900.399 380.812 710.957 253.769 637.151C134.25 571.129 133.505 613.384 -122.409 662.545" stroke="#FAFAFD" stroke-opacity="0.5" stroke-width="0.286519" stroke-linecap="round" stroke-linejoin="round"/>
<path d="M1668.41 289.81C1605.7 310.345 1574.16 393.187 1490.87 446.705C1409.67 494.417 1359.15 466.524 1297.08 413.26C1149.87 281.59 1056.83 114.591 903.496 168.019C782.273 220.188 743.757 544.439 665.613 708.298C561.379 908.399 380.632 711.119 253.696 636.803C133.916 570.228 132.733 613.854 -122.409 662.545" stroke="#FAFAFD" stroke-opacity="0.5" stroke-width="0.286519" stroke-linecap="round" stroke-linejoin="round"/>
<path d="M1668.41 289.81C1603.52 311.548 1576.28 393.24 1491.32 448.837C1410.39 497.276 1359.59 468.533 1297.23 413.979C1151.55 281.222 1054.9 108.098 902.017 160.915C778.963 214.144 742.498 569.16 661.715 726.96C555.386 914.655 369.029 696.838 236.068 626.91C129.559 574.681 126.714 615.374 -122.413 662.54" stroke="#FAFAFD" stroke-opacity="0.5" stroke-width="0.286519" stroke-linecap="round" stroke-linejoin="round"/>
<path d="M1668.41 289.81C1603.76 311.957 1575.97 394.333 1491.65 450.456C1410.83 499.63 1360.02 470.174 1297.29 414.264C1152 279.41 1052.23 100.505 900.626 154.234C782.317 207.23 746.904 554.681 668.773 723.48C568.704 919.931 386.661 714.027 253.504 635.879C133.716 569.229 130.762 615.067 -122.409 662.545" stroke="#FAFAFD" stroke-opacity="0.5" stroke-width="0.286519" stroke-linecap="round" stroke-linejoin="round"/>
<path d="M1668.41 289.81C1604.72 312.107 1574.72 396.111 1491.99 452.081C1408.66 503.62 1357.01 468.69 1297.35 414.549C1152.63 277.822 1049.67 92.8897 899.236 147.552C782.476 201.66 749.028 559.319 670.299 730.812C570.156 928.432 383.794 707.54 244.587 630.449C132.12 571.97 128.902 615.924 -122.409 662.545" stroke="#FAFAFD" stroke-opacity="0.5" stroke-width="0.286519" stroke-linecap="round" stroke-linejoin="round"/>
<path d="M1668.41 289.81C1603.85 312.902 1570.11 404.773 1485.45 458.022C1340.69 540.21 1258.8 347.954 1088.11 194.719C1040.91 154.383 1003.61 131.633 950.33 131.261C928 132.167 911.046 134.542 890.764 144.26C776.643 213.325 744.208 611.172 660.629 759.139C556.506 921.75 366.296 688.074 227.109 621.245C124.217 575.917 88.5566 624.446 -47.0905 650.372C-84.1951 656.982 -82.1742 655.152 -122.409 662.545" stroke="#FAFAFD" stroke-opacity="0.5" stroke-width="0.286519" stroke-linecap="round" stroke-linejoin="round"/>
<path d="M1668.41 289.81C1604.99 312.99 1574.16 398.415 1492.67 455.319C1414.68 505.151 1364.25 477.86 1297.47 415.119C1152.79 273.661 1044.7 77.6913 896.454 134.189C783.157 190.223 752.491 570.208 673.351 745.475C578.317 934.888 397.519 718.15 253.155 634.203C134.656 569.141 134.526 615.789 -122.409 662.545" stroke="#FAFAFD" stroke-opacity="0.5" stroke-width="0.286519" stroke-linecap="round" stroke-linejoin="round"/>
<path d="M1668.41 289.81C1606.48 312.901 1572.32 400.535 1492.98 456.847C1349.48 550.015 1269.15 362.609 1095.88 194.702C1032.79 135.899 969.366 98.7244 895.144 127.889C831.502 160.567 797.68 296.037 768.206 415.726C698.173 704.591 683.43 897.248 489.72 798.304C344.219 718.722 250.298 576.007 107.604 608.158C57.7254 620.669 26.3165 636.187 -39.5233 649.35C-77.6777 656.464 -80.1227 654.939 -122.411 662.551" stroke="#FAFAFD" stroke-opacity="0.5" stroke-width="0.286519" stroke-linecap="round" stroke-linejoin="round"/>
<path d="M1668.41 289.81C1605.2 313.811 1572.99 400.407 1493.2 457.902C1414.66 509.682 1364.14 479.845 1297.48 415.176C1155.09 271.509 1039.54 62.5334 894.201 123.363C784.781 183.217 756.751 581.545 676.08 758.588C580.118 946.98 389.185 700.744 235.489 624.146C130.921 575.955 132.312 617.409 -122.417 662.54" stroke="#FAFAFD" stroke-opacity="0.5" stroke-width="0.286519" stroke-linecap="round" stroke-linejoin="round"/>
<path d="M1668.41 289.81C1605.35 314.171 1572.31 401.257 1493.42 458.956C1415.63 511.037 1365.25 481.798 1297.45 415.022C1156.27 270.455 1037.03 54.9368 893.26 118.841C783.071 182.823 757.281 610.205 671.782 775.328C576.406 937.278 381.912 695.233 235.433 623.86C131.638 577.222 134.458 617.742 -122.413 662.54" stroke="#FAFAFD" stroke-opacity="0.5" stroke-width="0.286519" stroke-linecap="round" stroke-linejoin="round"/>
<path d="M1668.41 289.81C1605.19 314.644 1571.96 401.878 1493.64 460.011C1415.74 512.954 1365.43 482.859 1297.42 414.874C1158.93 271.002 1034.96 47.1897 892.32 114.326C784.82 180.443 758.971 617.967 673.008 781.223C576.982 940.989 379.089 686.548 226.811 619.832C124.453 579.122 90.4022 627.851 -46.8494 651.547C-83.8537 657.458 -84.3661 656.007 -122.412 662.545" stroke="#FAFAFD" stroke-opacity="0.5" stroke-width="0.286519" stroke-linecap="round" stroke-linejoin="round"/>
<path d="M1668.41 289.81C1605.02 315.149 1565.68 411.481 1487.06 465.758C1344 555.027 1261.59 344.268 1082.64 168.449C1035.76 124.544 997.249 97.6496 943.314 97.5504C920.682 98.7574 904.144 101.516 884.521 114.266C783.083 198.482 757.77 650.99 668.422 796.584C571.981 931.329 376.948 683.727 226.778 619.654C124.515 580.138 90.7923 628.716 -46.7903 651.814C-84.3129 657.649 -84.5099 656.137 -122.409 662.545" stroke="#FAFAFD" stroke-opacity="0.5" stroke-width="0.286519" stroke-linecap="round" stroke-linejoin="round"/>
<path d="M1668.41 289.81C1605.51 315.341 1570.5 403.615 1494.06 462.006C1417.8 515.429 1367.87 486.986 1297.33 414.475C1163.28 271.322 1030.83 32.0371 890.594 106.031C787.387 177.054 764.011 630.551 675.358 792.511C581.157 942.077 385.569 685.199 226.753 619.552C125.129 581.616 89.1252 629.985 -46.7317 652.111C-83.8663 657.705 -84.9381 656.322 -122.411 662.551" stroke="#FAFAFD" stroke-opacity="0.5" stroke-width="0.286519" stroke-linecap="round" stroke-linejoin="round"/>
<path d="M1668.41 289.81C1605.26 315.718 1569.89 403.85 1494.16 462.508C1417.68 516.862 1367.55 487.076 1297.21 413.888C1167.35 273.592 1068.72 94.8613 949.631 90.4898C843.324 93.3206 831.997 174.692 754.897 538.807C695.183 814.294 662.161 858.837 566.682 831.422C456.715 794.443 353.966 674.051 235.269 623.073C134.623 583.571 137.231 620.394 -122.412 662.545" stroke="#FAFAFD" stroke-opacity="0.5" stroke-width="0.286519" stroke-linecap="round" stroke-linejoin="round"/>
<path d="M1668.41 289.81C1604.99 316.108 1569.26 404.106 1494.27 463.01C1352.48 565.236 1269.85 354.706 1090.21 167.428C1044.1 121.284 1003.61 89.0156 949.132 88.0775C926.876 89.135 909.557 92.5791 890.273 104.474C791.786 182.8 770.47 643.095 676.799 799.42C585.073 931.441 398.541 689.654 235.273 623.078C136.053 586.266 141.125 620.821 -122.409 662.545" stroke="#FAFAFD" stroke-opacity="0.5" stroke-width="0.286519" stroke-linecap="round" stroke-linejoin="round"/>
<path d="M1668.41 289.81C1608.09 315.094 1571.1 397.916 1501.06 458.188C1359.98 570.473 1285.1 376.729 1099.48 174.544C1034.11 106.08 970.912 61.3761 896.944 99.1657C795.359 166.442 778.237 621.017 683.363 793.563C594.34 935.353 411.736 697.026 243.737 626.349C140.806 586.65 145.589 621.123 -122.411 662.551" stroke="#FAFAFD" stroke-opacity="0.5" stroke-width="0.286519" stroke-linecap="round" stroke-linejoin="round"/>
<path d="M1668.41 289.81C1604.53 316.864 1567.68 404.969 1494.47 464.007C1357.57 565.527 1282.85 372.801 1098.8 171.29C1033.6 102.688 970.085 57.783 896.72 98.1061C798.95 167.414 783.698 603.63 689.861 787.405C600.822 942.284 422.129 697.152 243.692 626.15C142.148 589.214 147.107 621.961 -122.414 662.552" stroke="#FAFAFD" stroke-opacity="0.5" stroke-width="0.286519" stroke-linecap="round" stroke-linejoin="round"/>
<path d="M1668.41 289.81C1605.28 316.797 1565.49 406.394 1494.55 464.378C1418.77 521.329 1369.25 490.387 1296.7 411.43C1149.09 244.909 1032.64 17.5387 896.72 98.1061C800.956 170.803 787.012 611.125 690.576 790.842C601.337 938.102 426.163 693.951 243.646 625.928C144.583 592.371 149.647 622.729 -122.416 662.546" stroke="#FAFAFD" stroke-opacity="0.5" stroke-width="0.286519" stroke-linecap="round" stroke-linejoin="round"/>
<path d="M1668.41 289.81C1605.28 316.862 1563.49 407.31 1494.54 464.31C1419.39 521.475 1370 491.04 1296.48 410.364C1147.84 241.375 1032.06 14.508 897.481 101.761C803.934 178.671 790.81 619.477 690.814 791.983C601.188 928.462 428.817 688.278 243.588 625.648C196.15 611.171 163.331 610.376 117.794 619.723C-35.6845 654.422 148.197 624.352 -122.417 662.54" stroke="#FAFAFD" stroke-opacity="0.5" stroke-width="0.286519" stroke-linecap="round" stroke-linejoin="round"/>
<path d="M1668.41 289.81C1603.86 317.545 1563.74 406.378 1494.52 464.247C1353.17 573.021 1267.21 341.333 1087.4 153.973C1041.78 108.593 1001.82 77.9017 948.405 84.5828C920.405 90.1488 905.962 98.5737 891.68 111.236C803.495 209.163 788.793 676.391 678.807 809.066C587.464 901.531 417.521 672.6 235.284 623.13C188.244 611.882 156.105 613.296 110.788 623.424C-75.3489 667.81 -28.5999 649.818 -122.406 662.544" stroke="#FAFAFD" stroke-opacity="0.5" stroke-width="0.286519" stroke-linecap="round" stroke-linejoin="round"/>
<path d="M1668.41 289.81C1605.02 317.119 1567.81 397.829 1501.14 458.576C1425.87 522.207 1377.35 495.462 1306.16 419.53C1154.03 249.918 1034.76 5.4462 899.005 109.069C807.335 196.397 797.42 658.167 685.149 802.143C592.931 903.379 428.492 668.931 235.286 623.153C188.666 613.549 156.063 615.523 111.206 625.448C-74.0222 668.944 -8.0237 647.623 -122.409 662.545" stroke="#FAFAFD" stroke-opacity="0.5" stroke-width="0.286519" stroke-linecap="round" stroke-linejoin="round"/>
<path d="M1668.41 289.81C1603.16 317.993 1561.33 406.981 1494.5 464.11C1418.95 523.629 1368.98 489.384 1295.81 407.177C1162.06 251.668 1062.23 64.0555 949.003 87.4739C921.28 95.3616 907.218 105.123 893.349 119.269C809.956 224.485 798.752 670.065 685.266 802.72C592.232 895.143 432.965 663.128 235.286 623.171C188.913 615.181 155.696 617.818 111.621 627.461C-63.4979 667.955 -18.9008 649.572 -122.414 662.54" stroke="#FAFAFD" stroke-opacity="0.5" stroke-width="0.286519" stroke-linecap="round" stroke-linejoin="round"/>
<path d="M1668.41 289.81C1601.9 318.56 1561 406.432 1494.45 463.899C1419.59 523.501 1369.91 490.105 1295.57 405.986C1146.64 231.728 1030.41 2.73423 900.781 117.615C813.218 213.123 807.624 654.717 691.569 795.608C598.966 892.79 451.039 669.901 251.437 625.948C136.703 603.921 129.616 643.392 -99.5639 660.121C-107.475 660.84 -108.201 660.848 -122.416 662.546" stroke="#FAFAFD" stroke-opacity="0.5" stroke-width="0.286519" stroke-linecap="round" stroke-linejoin="round"/>
<path d="M1668.41 289.81C1600.99 318.779 1560.29 405.884 1494.32 463.26C1419.42 523.37 1369.73 489.05 1295.24 404.412C1143.76 226.521 1030.95 3.03862 902.571 126.218C818.046 225.019 812.716 646.46 697.411 786.267C601.778 887.518 464.515 666.59 259.246 626.071C137.772 605.328 120.089 648.593 -91.8504 659.771C-103.302 660.519 -105.738 660.663 -122.412 662.545" stroke="#FAFAFD" stroke-opacity="0.5" stroke-width="0.286519" stroke-linecap="round" stroke-linejoin="round"/>
<path d="M1668.41 289.81C1580.45 327.407 1535.5 461.185 1445.45 490.271C1292.2 526.063 1128.04 64.5573 966.447 96.4649C906.471 113.98 886.017 153.283 866.549 214.942C814.354 396.854 794.188 668.767 703.429 777.735C629.663 855.548 565.353 766.431 401.779 674.973C221.34 577.502 134.561 639.704 0.539894 654.781C-55.8332 660.417 -75.1661 657.524 -122.404 662.55" stroke="#FAFAFD" stroke-opacity="0.5" stroke-width="0.286519" stroke-linecap="round" stroke-linejoin="round"/>
<path d="M1668.41 289.81C1601.27 318.364 1563.7 396.34 1500.64 456.181C1426.21 521.905 1377.87 493.344 1304.8 412.968C1149.38 234.868 1035.82 -0.711361 906.154 143.412C823.6 253.33 820.129 687.469 689.955 787.837C588.572 852.663 463.94 636.809 250.655 622.173C208.204 620.254 169.468 624.813 128.277 632.661C-71.6976 673.159 -2.44417 650.578 -122.41 662.539" stroke="#FAFAFD" stroke-opacity="0.5" stroke-width="0.286519" stroke-linecap="round" stroke-linejoin="round"/>
<path d="M1668.41 289.81C1597.98 319.584 1558.45 403.964 1493.92 461.356C1418.94 522.906 1369.21 485.939 1294.25 399.686C1160.18 240.532 1061.76 57.372 954.258 112.724C928.456 128.23 915.026 141.969 901.933 160.511C826.763 287.753 821.278 701.178 689.415 785.243C585.439 838.843 469.308 629.214 258.201 621.036C134.723 619.084 122.452 654.156 -91.7164 660.397C-103.291 660.897 -105.639 660.981 -122.41 662.539" stroke="#FAFAFD" stroke-opacity="0.5" stroke-width="0.286519" stroke-linecap="round" stroke-linejoin="round"/>
<path d="M1668.41 289.81C1596.77 319.877 1558.36 402.78 1493.76 460.57C1419.08 522.258 1369.49 485.222 1293.9 397.97C1138.65 213.227 1033.54 4.49144 909.965 161.741C830.395 281.282 829.768 694.897 695.691 778.001C587.158 832.698 477.187 619.64 265.533 618.868C221.4 619.703 172.148 628.271 129.11 636.681C-42.5804 671.714 -31.074 654.657 -122.413 662.54" stroke="#FAFAFD" stroke-opacity="0.5" stroke-width="0.286519" stroke-linecap="round" stroke-linejoin="round"/>
<path d="M1668.41 289.81C1572.38 329.582 1528.41 468.769 1437.42 489.064C1286.97 507.66 1118.21 35.0952 964.445 124.219C907.798 162.579 892.352 203.939 872.462 280.728C823.179 483.084 801.087 722.6 694.515 772.333C609.53 802.923 530.581 690.503 393.405 634.758C286.843 594.721 217.856 622.159 69.7421 650.65C-17.3401 666.384 -54.9089 657.203 -122.41 662.539" stroke="#FAFAFD" stroke-opacity="0.5" stroke-width="0.286519" stroke-linecap="round" stroke-linejoin="round"/>
<path d="M1668.41 289.81C1597.73 318.706 1561.31 393.102 1499.83 452.31C1426.87 517.817 1379.09 489.951 1303.26 405.591C1140.23 217.168 1040.63 6.03743 915.263 187.179C861.516 277.308 849.761 477.658 791.927 641.894C704.752 871.343 598.062 736.455 459.928 655.149C313.264 572.24 257.411 619.072 62.5385 653.452C-18.1684 666.633 -59.4848 658.025 -122.409 662.545" stroke="#FAFAFD" stroke-opacity="0.5" stroke-width="0.286519" stroke-linecap="round" stroke-linejoin="round"/>
<path d="M1668.41 289.81C1596.71 318.748 1560.99 391.879 1499.59 451.124C1426.6 516.75 1378.98 488.331 1302.83 403.499C1132.14 206.111 1048.42 20.1913 923.815 190.841C842.19 316.109 846.247 704.386 707.011 757.569C584.767 791.815 482.086 573.457 278.368 605.71C221.279 616.04 254.149 614.255 92.793 649.201C-8.93197 670.141 -48.9522 657.796 -122.414 662.54" stroke="#FAFAFD" stroke-opacity="0.5" stroke-width="0.286519" stroke-linecap="round" stroke-linejoin="round"/>
<path d="M1668.41 289.81C1595.61 318.792 1560.84 390.512 1499.34 449.933C1425.77 516.196 1377.94 485.687 1302.39 401.401C1128.86 200.627 1049.42 23.1994 926.378 203.15C869.351 295.948 860.366 491.439 800.839 647.32C713.438 857.841 598.771 709.506 462.646 630.815C320.409 552.671 278.811 614.808 78.1585 653.71C-10.5776 669.836 -53.2474 658.594 -122.412 662.545" stroke="#FAFAFD" stroke-opacity="0.5" stroke-width="0.286519" stroke-linecap="round" stroke-linejoin="round"/>
<path d="M1668.41 289.81C1590.55 320.356 1557.49 395.991 1492.5 454.504C1417.98 516.413 1367.09 474.485 1291.67 387.275C1121.03 184.674 1040.73 24.26 923.347 226.033C848.89 371.429 850.73 747.48 697.473 749.151C567.82 739.996 469.577 536.28 276.4 596.27C197.613 622.376 224.349 622.741 100.818 650.362C-4.74427 672.898 -44.8105 658.67 -122.412 662.545" stroke="#FAFAFD" stroke-opacity="0.5" stroke-width="0.286519" stroke-linecap="round" stroke-linejoin="round"/>
<path d="M1668.41 289.81C1589.69 320.114 1556.99 394.745 1492.14 452.81C1417.33 514.627 1365.75 470.689 1291.12 384.613C1160.72 230.367 1068.31 71.0109 974.291 171.544C956.214 192.818 940.749 215.285 926.473 241.055C852.198 392.1 854.486 759.808 695.747 740.861C618.361 725.806 547.568 647.061 455.783 597.84C383.696 561.792 336.745 564.724 267.952 593.079C42.5214 689.63 -11.0931 657.737 -122.413 662.54" stroke="#FAFAFD" stroke-opacity="0.5" stroke-width="0.286519" stroke-linecap="round" stroke-linejoin="round"/>
<path d="M1668.41 289.81C1588.67 319.939 1556.81 393.201 1491.79 451.117C1416.81 512.72 1365.01 467.567 1290.56 381.956C1160.28 228.413 1069 73.2046 976.615 182.707C959.356 205.036 943.646 229.493 929.601 256.083C855.481 412.99 858.156 772.493 694.023 732.578C610.132 706.421 530.935 613.955 434.977 572.68C363.563 545.14 319.111 560.162 252.725 594.726C74.9954 688.302 -37.6657 659.473 -122.409 662.545" stroke="#FAFAFD" stroke-opacity="0.5" stroke-width="0.286519" stroke-linecap="round" stroke-linejoin="round"/>
<path d="M1668.41 289.81C1587.54 319.787 1556.74 391.573 1491.44 449.424C1416.53 510.601 1364.67 464.919 1290.01 379.293C1159.8 226.408 1069.7 75.3675 978.935 193.858C962.221 217.519 946.374 244.026 932.727 271.105C859.049 433.321 861.792 785.375 692.298 724.288C607.499 688.382 525.805 593.401 431.471 555.839C352.237 528.137 307.022 556.807 237.947 598.528C89.9971 686.928 -51.4044 660.465 -122.411 662.551" stroke="#FAFAFD" stroke-opacity="0.5" stroke-width="0.286519" stroke-linecap="round" stroke-linejoin="round"/>
<path d="M1668.41 289.81C1564.54 327.556 1526.33 451.537 1442.17 474.536C1290.43 500.268 1123.47 19.7205 987.255 196.433C873.932 358.568 893.935 539.514 815.155 678.69C710.16 842.964 560.429 555.408 395.26 531.453C295.247 522.779 249.736 609.915 145.513 640.649C-0.746317 681.012 -23.7621 660.321 -122.405 662.544" stroke="#FAFAFD" stroke-opacity="0.5" stroke-width="0.286519" stroke-linecap="round" stroke-linejoin="round"/>
<path d="M1668.41 289.81C1589.77 317.788 1559.81 381.429 1497.29 440.104C1423.72 504.418 1375.07 469.374 1299.05 385.369C1224.7 300.626 1178.82 233.447 1117.24 185.104C1032.25 125.125 999.999 180.189 949.8 278.324C865.926 449.253 872.592 790.877 706.211 716.331C634.624 679.417 558.13 592.901 467.194 540.446C276.248 438.482 291.132 674.228 -28.3224 665.755C-71.961 664.173 -84.2657 661.916 -122.413 662.54" stroke="#FAFAFD" stroke-opacity="0.5" stroke-width="0.286519" stroke-linecap="round" stroke-linejoin="round"/>
<path d="M1668.41 289.81C1588.57 317.569 1560.57 378.969 1496.85 437.966C1423.28 501.386 1374.52 465.796 1298.35 381.977C1221.18 294.513 1170.97 221.845 1108.5 180.535C1030.33 135.689 999.043 194.444 947.373 304.025C868.872 479.605 873.32 811.157 695.352 701.55C624.307 653.835 543.435 562.157 454.438 516.554C269.409 430.948 292.701 679.386 -43.9968 665.252C-89.5725 663.044 -90.9138 662.181 -122.411 662.551" stroke="#FAFAFD" stroke-opacity="0.5" stroke-width="0.286519" stroke-linecap="round" stroke-linejoin="round"/>
<path d="M1668.41 289.81C1587.9 317.126 1560.22 377.524 1496.4 435.823C1422.7 498.467 1373.82 462.034 1297.64 378.574C1219.05 289.972 1170.27 220.2 1108.89 182.394C1035.67 143.995 1004.61 193.345 945.142 330.732C872.312 511.99 872.002 818.468 693.209 691.254C622.124 637.01 533.808 533.778 441.87 493.582C263.374 425.631 292.076 678.695 -43.974 665.36C-88.8577 663.258 -89.6044 662.307 -122.412 662.545" stroke="#FAFAFD" stroke-opacity="0.5" stroke-width="0.286519" stroke-linecap="round" stroke-linejoin="round"/>
<path d="M1668.41 289.81C1587.03 316.765 1560.35 375.63 1495.96 433.685C1421.71 495.878 1372.86 457.998 1296.93 375.176C1221.66 290.785 1176.83 228.008 1118.12 189.295C1036.86 143.01 1006.9 205.638 948.227 345.555C898.934 471.296 885.086 646.987 813.656 708.903C711.367 779.818 592.336 528.805 429.517 471.647C299.617 434.302 265.096 593.347 137.045 637.397C3.28783 681.219 -22.8707 662.277 -122.412 662.545" stroke="#FAFAFD" stroke-opacity="0.5" stroke-width="0.286519" stroke-linecap="round" stroke-linejoin="round"/>
<path d="M1668.41 289.81C1586.21 316.352 1560.29 373.935 1495.51 431.547C1421.04 493.068 1371.77 453.829 1296.23 371.784C1221.55 288.512 1176.29 226.335 1118.41 190.697C1042.17 150.892 1010.74 205.017 946.275 373.554C901.271 499.937 885.21 663.265 814.643 713.641C711.044 770.13 598.771 519.144 433.969 455.624C299.582 412.456 265.644 589.063 136.711 635.789C5.02157 681.09 -21.9897 662.759 -122.41 662.557" stroke="#FAFAFD" stroke-opacity="0.5" stroke-width="0.286519" stroke-linecap="round" stroke-linejoin="round"/>
<path d="M1668.41 289.81C1585.64 315.83 1559.68 372.701 1495.03 429.215C1420.56 489.629 1371.34 450.093 1295.46 368.078C1218.63 282.946 1168.87 215.679 1110.01 187.77C1045.69 163.964 1012.83 206.611 944.294 401.464C900.861 534.283 882.601 689.408 808.152 719.851C700.609 747.166 582.159 480.936 421.738 434.253C294.67 406.335 262.063 585.401 136.231 633.468C6.20985 680.652 -20.7261 663.026 -122.41 662.539" stroke="#FAFAFD" stroke-opacity="0.5" stroke-width="0.286519" stroke-linecap="round" stroke-linejoin="round"/>
<path d="M1668.41 289.81C1584.99 315.281 1559.53 370.959 1494.47 426.541C1419.61 485.817 1370.19 445.046 1294.57 363.825C1217.02 278.521 1168.23 213.725 1110.27 189.013C1037.44 165.818 1011.79 238.151 951.711 399.653C906.374 528.925 888.986 684.814 815.456 717.534C705.389 749.038 592.701 473.115 426.1 417.797C295.375 383.734 262.076 574.656 142.672 627C12.2464 679.795 -21.8789 663.052 -122.405 662.544" stroke="#FAFAFD" stroke-opacity="0.5" stroke-width="0.286519" stroke-linecap="round" stroke-linejoin="round"/>
<path d="M1668.41 289.81C1584.45 314.69 1559.05 369.506 1493.91 423.862C1419.07 481.676 1369.7 440.727 1293.68 359.566C1220.47 279.612 1174.52 220.227 1118.98 193.445C1039.18 163.32 1015.2 246.38 954.226 411.757C908.665 542.075 890.535 693.901 815.582 718.156C702.303 737.314 588.707 449.63 422.169 398.932C292.184 369.07 261.234 568.062 141.894 623.284C15.1121 677.521 -15.8158 663.11 -122.409 662.545" stroke="#FAFAFD" stroke-opacity="0.5" stroke-width="0.286519" stroke-linecap="round" stroke-linejoin="round"/>
<path d="M1668.41 289.81C1584.51 313.893 1556.97 369.368 1493.36 421.182C1418.32 477.706 1368.87 436.011 1292.8 355.308C1219.62 275.988 1173.93 218.119 1119.14 194.226C1038.67 167.864 1016.83 259.472 956.743 423.849C910.951 555.214 892.027 702.935 815.708 718.76C699.263 725.462 584.68 426.07 418.241 380.056C287.511 354.084 261.615 565.217 134.001 622.768C11.3694 675.427 -9.97386 663.131 -122.413 662.54" stroke="#FAFAFD" stroke-opacity="0.5" stroke-width="0.286519" stroke-linecap="round" stroke-linejoin="round"/>
<path d="M1668.41 289.81C1554.78 321.413 1519.85 432.305 1435.84 444.081C1326.68 448.123 1219.8 222.804 1111.04 192.73C1035.29 180.916 1013.03 270.089 912.715 586.359C850.8 771.841 789.467 751.797 665.701 596.487C587.385 496.455 458.215 308.11 346.917 373.994C260.428 433.84 238.765 571.52 126.15 622.427C13.1018 672.33 -6.84393 663.188 -122.404 662.55" stroke="#FAFAFD" stroke-opacity="0.5" stroke-width="0.286519" stroke-linecap="round" stroke-linejoin="round"/>
<path d="M1668.41 289.81C1582.86 312.773 1557.44 365.191 1492.19 415.584C1416.66 469.395 1366.96 426.029 1290.94 346.403C1223.77 274.709 1173.81 213.992 1119.37 195.315C1036.99 176.624 1019.22 288.88 966.331 432.536C917 569.14 898.495 707.114 823.405 718.33C702.114 718.117 588.317 395.775 418.663 344.673C286.751 315.521 260.149 539.94 146.44 607.712C22.6467 674.341 -30.6523 662.831 -122.41 662.539" stroke="#FAFAFD" stroke-opacity="0.5" stroke-width="0.286519" stroke-linecap="round" stroke-linejoin="round"/>
<path d="M1668.41 289.81C1582.42 311.99 1556.9 363.5 1491.5 412.266C1416.85 463.496 1367.98 422.362 1289.84 341.112C1225.28 272.788 1173.77 211.181 1119.27 194.825C1036.74 179.876 1019.75 298.639 967.834 439.759C918.252 576.113 898.688 710.268 822.741 715.137C698.03 704.829 584.747 374.219 414.999 327.068C285.061 301.698 256.717 532.577 145.276 602.119C21.8112 671.85 -30.9487 662.263 -122.408 662.55" stroke="#FAFAFD" stroke-opacity="0.5" stroke-width="0.286519" stroke-linecap="round" stroke-linejoin="round"/>
<path d="M1668.41 289.81C1581.94 311.192 1556.5 361.687 1490.81 408.942C1415.46 458.66 1366.2 415.778 1288.74 335.81C1225.41 269.377 1173.39 208.226 1119.16 194.317C1036.65 183.227 1021.06 307.46 969.333 446.96C920.644 579.951 900.996 702.537 829.887 712.062C705.173 709.802 590.309 368.6 419.55 311.524C285.906 277.558 258.843 513.1 150.963 592.031C31.7617 669.832 -46.822 661.968 -122.409 662.545" stroke="#FAFAFD" stroke-opacity="0.5" stroke-width="0.286519" stroke-linecap="round" stroke-linejoin="round"/>
<path d="M1668.41 289.81C1553.01 317.124 1516.56 421.181 1432.17 426.493C1322.26 422.509 1215.06 202.111 1111.13 193.141C1028.58 197.165 1023.18 326.297 917.398 608.856C846.151 787.12 769.188 703.901 654.066 540.588C570.806 420.743 444.284 224.489 334.385 313.785C253.03 389.169 230.533 540.667 129.095 599.182C18.693 660.276 -4.25582 660.847 -122.409 662.545" stroke="#FAFAFD" stroke-opacity="0.5" stroke-width="0.286519" stroke-linecap="round" stroke-linejoin="round"/>
<path d="M1668.41 289.81C1580.98 309.578 1555.39 358.313 1489.42 402.301C1414.03 448.196 1365.01 405.052 1286.54 325.223C1225.9 262.6 1172.55 202.238 1118.96 193.325C1038.34 190.29 1023.18 321.329 977.332 447.966C920.997 599.524 899.361 719.235 820.739 705.52C685.103 663.391 564.789 292.816 396.017 273.281C272.528 270.73 250.996 514.746 134.911 589.733C19.5543 659.329 -12.4903 660.407 -122.409 662.545" stroke="#FAFAFD" stroke-opacity="0.5" stroke-width="0.286519" stroke-linecap="round" stroke-linejoin="round"/>
<path d="M1668.41 289.81C1580.5 308.69 1555 356.359 1488.68 398.703C1412.77 442.821 1363.46 398.361 1285.35 319.511C1229.07 261.995 1173.19 198.959 1118.72 192.214C1038.5 192.834 1023.9 327.735 978.379 452.994C922.02 602.999 899.107 719.573 819.728 700.662C681.341 649.304 560.692 272.291 392.627 256.993C268.126 257.793 251.18 509.979 126.812 588.231C20.6948 652.513 -2.07354 658.9 -122.409 662.545" stroke="#FAFAFD" stroke-opacity="0.5" stroke-width="0.286519" stroke-linecap="round" stroke-linejoin="round"/>
<path d="M1668.41 289.81C1549.96 313.678 1514.93 411.523 1429.05 411.505C1321.57 401.203 1219.35 198.863 1118.3 190.155C1064.27 192.716 1041.23 257.445 1020.91 320.673C925.863 630.214 891.46 705.159 826.473 695.642C675.603 652.74 508.706 139.466 338.8 260.172C252.918 331.717 230.784 508.758 132.359 577.434C19.8592 651.033 -10.8174 657.4 -122.409 662.545" stroke="#FAFAFD" stroke-opacity="0.5" stroke-width="0.286519" stroke-linecap="round" stroke-linejoin="round"/>
<path d="M1668.41 289.81C1579.93 306.49 1553.32 352.553 1487.01 390.676C1404.35 433.618 1355.12 379.03 1253.21 277.319C1210.57 235.285 1159.94 184.421 1110.22 188.779C1035.38 206.319 1023.83 341.519 974.007 469.416C923.272 598.503 899.148 703.112 825.021 688.682C686.772 643.088 569.438 268.306 402.413 229.189C270.957 210.292 248.499 478.572 137.776 566.082C17.126 653.363 -32.5712 657.104 -122.409 662.545" stroke="#FAFAFD" stroke-opacity="0.5" stroke-width="0.286519" stroke-linecap="round" stroke-linejoin="round"/>
<path d="M1668.41 289.81C1575.63 306.106 1546.59 357.105 1479.1 390.121C1400.5 423.849 1353.59 371.3 1251.97 271.385C1044.61 69.9364 1058.83 260.146 964.077 496.513C918.52 612.584 890.015 715.904 806.437 674.218C660.848 584.59 545.728 217.21 383.469 212.992C261.324 222.408 245.8 482.607 122.873 569.303C21.9588 638.177 -3.1619 653.499 -122.409 662.545" stroke="#FAFAFD" stroke-opacity="0.5" stroke-width="0.286519" stroke-linecap="round" stroke-linejoin="round"/>
<path d="M1668.41 289.81C1574.26 305.136 1547.19 354.244 1478.22 385.914C1397.05 418.363 1345.75 357.64 1250.73 265.45C1043.67 67.236 1059.2 266.522 964.313 497.647C917.207 614.392 886.66 719.969 795.811 660.554C646.849 547.223 530.442 183.181 372.793 199.095C299.259 214.566 268.713 317.324 212.569 439.186C164.939 539.325 145.618 546.041 80.83 591.705C2.80326 645.792 -35.4264 654.737 -122.408 662.545" stroke="#FAFAFD" stroke-opacity="0.5" stroke-width="0.286519" stroke-linecap="round" stroke-linejoin="round"/>
<path d="M1668.41 289.804C1574.87 303.742 1545.05 352.472 1477.29 381.461C1339.05 432.557 1221.52 159.63 1109.01 182.965C1035.21 209.56 1024.96 350.189 974.501 471.806C918.399 604.555 890.607 707.412 802.98 657.622C650.467 553.822 531.182 166.759 370.114 186.257C296.719 203.324 266.25 308.213 210.814 430.789C163.569 532.008 144.382 539.042 79.6945 586.284C1.89896 642.441 -36.0169 653.236 -122.407 662.55" stroke="#FAFAFD" stroke-opacity="0.5" stroke-width="0.286519" stroke-linecap="round" stroke-linejoin="round"/>
<path d="M1668.41 289.793C1578.17 301.984 1550.54 343.803 1483.5 373.829C1398.18 407.553 1349.83 348.642 1248.05 252.537C1204.67 212.273 1156.46 168.406 1108.36 179.863C1035.07 208.577 1024.48 349.864 973.739 468.128C917.912 595.508 888.929 698.53 800.846 647.354C648.48 542 527.609 153.822 367.909 175.647C294.835 193.806 264.454 299.415 209.19 422.972C168.382 511.354 148.643 528.049 105.447 560.403C14.949 628.59 -13.8547 648.373 -122.405 662.562" stroke="#FAFAFD" stroke-opacity="0.5" stroke-width="0.286519" stroke-linecap="round" stroke-linejoin="round"/>
<path d="M1668.4 289.776C1577.35 300.769 1550.3 341.154 1482.55 369.246C1401.01 398.826 1354.56 347.585 1256.32 254.847C1213.3 214.79 1164.17 168.545 1115.1 174.762C1038.1 195.521 1025.48 340.087 978.278 452.491C881.729 669.896 851.873 768.501 641.38 442.224C563.981 320.488 477.708 159.271 373.251 163.882C253.054 182.16 239.728 447.148 117.602 543.961C21.1478 618.152 -5.80207 644.633 -122.403 662.573" stroke="#FAFAFD" stroke-opacity="0.5" stroke-width="0.286519" stroke-linecap="round" stroke-linejoin="round"/>
<path d="M1668.4 289.765C1576.89 299.531 1549.53 338.733 1481.59 364.679C1399.39 391.888 1353.43 339.868 1254.9 248.023C1211.58 208.259 1163.11 163.762 1114.41 171.45C1037.87 194.481 1025.2 339.295 977.573 449.105C878.804 663.908 847.579 754.53 639.069 431.119C558.852 304.889 474.33 147.097 371.02 153.164C251.343 173.225 238.147 438.632 116.281 537.616C20.2398 613.499 -7.42535 642.211 -122.4 662.585" stroke="#FAFAFD" stroke-opacity="0.5" stroke-width="0.286519" stroke-linecap="round" stroke-linejoin="round"/>
<path d="M1668.4 289.753C1576.53 298.251 1548.39 336.423 1480.64 360.101C1338.21 402.738 1226.46 146.807 1113.71 168.121C1035.56 194.136 1025.31 343.983 971.44 457.085C913.569 575.207 883.027 671.338 794.436 616.557C637.91 503.2 518.582 114.986 361.283 143.812C289.271 165.278 259.221 272.679 204.311 399.53C163.029 491.954 144.592 507.229 94.9695 547.458C10.9005 616.775 -20.3309 642.101 -122.399 662.59" stroke="#FAFAFD" stroke-opacity="0.5" stroke-width="0.286519" stroke-linecap="round" stroke-linejoin="round"/>
<path d="M1668.39 289.73C1575.82 296.966 1547.73 333.849 1479.67 355.426C1393.32 378.574 1347.62 319.48 1242.48 225.793C1040.13 49.8299 1056.85 282.457 959.266 473.4C910.054 570.866 878.047 659.176 792.255 606.078C636.992 493.738 523.346 120.823 367.022 133.975C248.226 157.065 235.487 422.269 113.727 525.365C20.1014 602.732 -10.149 637.258 -122.399 662.59" stroke="#FAFAFD" stroke-opacity="0.5" stroke-width="0.286519" stroke-linecap="round" stroke-linejoin="round"/>
<path d="M1668.39 289.702C1574.78 295.706 1547.23 331.087 1478.67 350.643C1335.62 384.528 1224.43 133.847 1112.18 160.761C1034.9 190.329 1024.09 338.212 968.805 444.423C908.908 556.151 880.197 641.015 798.93 600.74C642.22 505.878 517.519 97.9463 358.365 129.775C286.672 152.382 256.758 259.612 201.74 387.158C160.546 479.73 142.233 495.313 92.7244 536.654C9.14183 607.452 -21.9088 637.225 -122.404 662.567" stroke="#FAFAFD" stroke-opacity="0.5" stroke-width="0.286519" stroke-linecap="round" stroke-linejoin="round"/>
<path d="M1668.38 289.673C1573.64 294.409 1546.59 328.382 1477.68 345.854C1335.2 375.253 1222.87 127.634 1111.38 156.947C1036.31 187.366 1023.39 328.137 972.921 426.769C873.859 607.973 841.241 709.336 643.092 413.056C536.986 252.018 469.96 122.864 372.29 121.869C250.076 133.489 232.674 405.243 118.114 509.029C12.0544 600.624 -21.1555 634.303 -122.409 662.545" stroke="#FAFAFD" stroke-opacity="0.5" stroke-width="0.286519" stroke-linecap="round" stroke-linejoin="round"/>
<path d="M1668.38 289.645C1572.37 293.061 1546.62 325.508 1476.68 341.065C1334.06 366.122 1222.02 121.256 1110.59 153.127C1036.09 184.978 1022.33 325.105 971.47 419.802C871.167 594.305 838.872 697.582 641.503 405.422C533.026 242.361 467.73 116.624 371.095 116.134C249.287 128.401 231.521 398.952 116.996 503.658C9.17432 597.661 -23.4729 632.245 -122.412 662.527" stroke="#FAFAFD" stroke-opacity="0.5" stroke-width="0.286519" stroke-linecap="round" stroke-linejoin="round"/>
<path d="M1668.37 289.616C1567.66 291.789 1538.32 327.141 1468.12 337.381C1326.65 350.814 1204.82 91.1697 1095.76 156.678C1047.43 193.295 1028.24 271.116 996.929 355.166C978.195 402.884 973.31 407.083 946.752 450.702C891.763 543.6 857.782 620.574 765.043 550.144C606.827 415.809 486.724 52.3639 340.44 118.458C272.221 157.686 243.897 272.401 187.584 393.952C147.137 477.697 127.221 488.082 82.9138 526.913C5.44082 595.595 -29.4583 631.516 -122.417 662.505" stroke="#FAFAFD" stroke-opacity="0.5" stroke-width="0.286519" stroke-linecap="round" stroke-linejoin="round"/>
<path d="M1668.36 289.588C1566.71 290.391 1537.33 324.26 1467.11 332.523C1382.58 338.232 1342.18 279.988 1235.54 192.447C1041.3 38.4458 1054.98 273.817 950.73 432.387C897.811 515.045 865.485 598.616 781.257 553.241C622.927 452.037 506.569 76.7543 354.221 109.867C283.13 133.479 252.821 239.584 197.426 366.434C157.328 455.519 138.114 474.073 95.1778 511.048C12.0722 583.145 -23.7192 627.193 -122.423 662.476" stroke="#FAFAFD" stroke-opacity="0.5" stroke-width="0.286519" stroke-linecap="round" stroke-linejoin="round"/>
<path d="M1668.36 289.559C1537.01 288.834 1493.48 354.038 1401.48 316.395C1294.19 264.918 1192.35 101.784 1101.3 145.936C1053.56 176.085 1030.44 249.983 1004.7 317.611C979.115 382.957 983.875 368.982 907.635 487.163C875.594 534.915 847.204 566.394 796.551 551.914C629.426 485.706 479.937 -2.09346 319.391 129.542C236.93 207.804 211.027 395.771 120.798 484.511C10.0317 586.181 -38.1906 630.122 -122.43 662.442" stroke="#FAFAFD" stroke-opacity="0.5" stroke-width="0.286519" stroke-linecap="round" stroke-linejoin="round"/>
<path d="M1668.35 289.531C1562.25 287.507 1536.94 318.446 1465.15 323.139C1375.01 324.635 1329.84 254.183 1223.83 173.56C1042.47 42.6512 1047.84 277.267 952.82 404.983C892.808 486.436 862.912 574.747 777.494 535.145C621.094 446.994 504.09 78.8523 354.226 109.89C283.226 132.656 252.254 237.287 196.441 361.702C154.932 451.527 136.59 467.674 87.1269 509.762C8.06677 578.215 -31.9178 625.265 -122.439 662.402" stroke="#FAFAFD" stroke-opacity="0.5" stroke-width="0.286519" stroke-linecap="round" stroke-linejoin="round"/>
<path d="M1668.35 289.508C1566.75 286.227 1541.19 312.458 1471.91 318.141C1386.18 321.524 1350.59 269.75 1241.13 181.862C1041.09 26.7121 1049.65 268.468 957.066 388.022C860.825 509.313 832.679 649.555 637.073 384.134C522.523 225.472 462.927 108.75 369.337 107.685C248.752 118.912 227.738 379.748 112.86 483.784C-9.58035 589.65 -38.5852 625.743 -122.446 662.362" stroke="#FAFAFD" stroke-opacity="0.5" stroke-width="0.286519" stroke-linecap="round" stroke-linejoin="round"/>
<path d="M1668.34 289.479C1560.74 284.747 1534.01 312.769 1463.2 313.75C1376.18 310.859 1338.22 250.542 1230.6 168.725C1042.87 32.1241 1049.81 267.744 948.988 386.587C851.169 503.959 824.786 636.786 625.64 366.635C524.551 227.013 456.191 100.082 361.712 108.445C245.257 131.381 227.453 381.413 105.557 486.089C-0.985785 575.418 -34.0136 621.324 -122.454 662.328" stroke="#FAFAFD" stroke-opacity="0.5" stroke-width="0.286519" stroke-linecap="round" stroke-linejoin="round"/>
<path d="M1668.34 289.462C1560.22 283.301 1532.98 310.104 1462.32 309.497C1370.51 304.456 1325.63 231.922 1220.42 157.17C1044.42 39.4849 1047.47 267.507 947.164 377.806C884.646 448.14 855.901 537.925 772.197 509.69C618.983 442.74 501.054 85.3909 354.82 112.74C283.794 133.93 252.039 235.636 195.336 356.389C153.303 443.336 134.696 459.48 85.1659 500.338C-1.08742 572.721 -38.5195 621.197 -122.46 662.299" stroke="#FAFAFD" stroke-opacity="0.5" stroke-width="0.286519" stroke-linecap="round" stroke-linejoin="round"/>
<path d="M1668.34 289.457C1558.69 281.872 1532.56 307.652 1461.52 305.671C1373.12 299.142 1333.74 235.896 1228.67 159.427C1045.12 32.2271 1046.2 264.642 951.832 362.875C855.171 461.722 828.083 623.109 637.023 383.895C519.509 232.856 464.09 119.97 371.188 116.578C250.625 124.506 227.673 376.716 111.535 477.422C-30.0495 594.381 -44.7113 622.337 -122.465 662.277" stroke="#FAFAFD" stroke-opacity="0.5" stroke-width="0.286519" stroke-linecap="round" stroke-linejoin="round"/>
<path d="M1668.34 289.451C1561.67 280.777 1529.51 305.099 1460.72 301.846C1321.67 288.99 1203.26 57.305 1091.37 135.612C1043.91 175.123 1026.28 238.601 987.159 308.223C967.455 340.702 962.595 342.451 937.209 367.423C877.62 430.277 846.882 522.969 761.493 495.673C607.455 431.649 494.333 87.3964 349.791 125.992C279.964 152.476 248.402 255.094 190.318 369.692C148.323 449.75 131.292 460.521 77.9279 502.975C-6.95413 571.605 -44.208 620.115 -122.468 662.26" stroke="#FAFAFD" stroke-opacity="0.5" stroke-width="0.286519" stroke-linecap="round" stroke-linejoin="round"/>
<path d="M1668.33 289.44C1558.88 279.226 1530.01 302.681 1459.93 298.015C1320.46 282.545 1203.74 54.1722 1091.05 134.056C1043.49 173.886 1025.28 237.191 986.056 302.927C965.858 334.141 961.124 335.126 935.387 358.672C841.734 451.522 815.655 609.559 617.223 363.587C523.556 244.903 451.959 116.219 358.338 129.662C286.92 147.614 254.06 245.09 196.085 360.004C153.505 441.998 134.545 458.001 84.3249 496.314C-7.04106 567.025 -43.623 617.822 -122.473 662.237" stroke="#FAFAFD" stroke-opacity="0.5" stroke-width="0.286519" stroke-linecap="round" stroke-linejoin="round"/>
<path d="M1668.33 289.434C1559.9 278.022 1527.94 300.085 1459.13 294.195C1369.01 282.547 1329.6 216.904 1226.03 146.753C1048.3 33.0923 1050.96 255.02 940.189 344.313C846.485 423.809 819.869 603.097 628.374 379.77C518.853 248.214 459.361 131.94 367.092 134.324C250.287 149.415 228.051 384.899 104.273 479.957C-17.7218 570.551 -41.4543 614.527 -122.477 662.214" stroke="#FAFAFD" stroke-opacity="0.5" stroke-width="0.286519" stroke-linecap="round" stroke-linejoin="round"/>
<path d="M1668.33 289.445C1557.24 276.607 1528.45 298.099 1458.48 291.065C1320.24 271.182 1204.79 49.3015 1090.66 132.186C1045.86 170.169 1028.36 223.792 990.087 284.862C966.151 320.31 960.298 320.44 932.056 342.663C840.023 422.929 813.174 598.631 619.307 373.598C520.896 256.146 453.816 133.052 361.193 143.379C289.533 158.918 256.111 252.889 196.941 364.12C153.472 443.533 133.915 459.03 84.008 494.792C-13.4054 565.417 -44.3787 614.482 -122.477 662.214" stroke="#FAFAFD" stroke-opacity="0.5" stroke-width="0.286519" stroke-linecap="round" stroke-linejoin="round"/>
<path d="M1668.34 289.474C1554.44 275.281 1529.34 296.559 1457.96 288.568C1324.08 267.891 1210.96 58.166 1097.57 128.035C1048.94 163.735 1029.72 222.035 989.6 282.525C965.118 316.617 959.342 315.916 930.821 336.734C839.405 411.691 812.086 595.801 621.101 382.218C518.148 263.439 455.08 145.34 363.333 153.658C249.908 175.761 230.225 394.885 97.8181 486.338C-23.7293 569.356 -38.4822 609.168 -122.473 662.237" stroke="#FAFAFD" stroke-opacity="0.5" stroke-width="0.286519" stroke-linecap="round" stroke-linejoin="round"/>
<path d="M1668.35 289.502C1526.59 270.579 1481.86 312.822 1390.26 262.503C1289.77 201.45 1185.9 63.3572 1091 133.794C1046.05 172.251 1027.34 225.819 989.116 280.199C945.214 337.551 942.533 303.438 884.938 378.112C847.406 428.007 820.897 468.951 773.72 479.632C612.057 499.404 478.144 71.6133 322.64 182.565C239.876 250.653 209.873 407.246 111.739 478.397C-51.14 589.908 -38.5299 607.501 -122.469 662.254" stroke="#FAFAFD" stroke-opacity="0.5" stroke-width="0.286519" stroke-linecap="round" stroke-linejoin="round"/>
<path d="M1668.35 289.525C1553.67 273.203 1519.97 294.672 1448.85 282.149C1317.3 253.201 1200.73 40.3214 1084.55 140.273C1038.84 184.74 1023.28 235.479 982.419 285.453C959.821 310.273 954.926 308.413 928.352 324.87C834.222 392.523 808.853 596.807 614.673 388.731C516.85 280.298 451.768 161.512 360.067 175.364C289.043 193.46 255.248 285.574 193.938 387.086C152.975 452.636 133.685 466.846 84.5489 497.374C-18.565 562.185 -42.3005 608.321 -122.466 662.271" stroke="#FAFAFD" stroke-opacity="0.5" stroke-width="0.286519" stroke-linecap="round" stroke-linejoin="round"/>
<path d="M1668.36 289.554C1553.08 272.131 1519.43 292.85 1448.31 279.567C1319.4 249.879 1206.73 47.9407 1091.33 135.396C1045.76 174.781 1027.5 225.957 988.143 275.524C966.825 299.869 960.564 301.773 934.088 314.998C838.753 368.953 812.223 582.282 636.276 417.734C525.626 308.783 477.718 199.793 385.387 184.815C263.49 176.568 233.338 400.798 112.394 481.562C-52.3666 584.887 -33.6433 600.672 -122.462 662.288" stroke="#FAFAFD" stroke-opacity="0.5" stroke-width="0.286519" stroke-linecap="round" stroke-linejoin="round"/>
<path d="M1668.37 289.594C1550.21 271.009 1520.51 291.882 1447.96 277.908C1318.78 247.445 1203.25 40.9197 1085.22 143.477C1036.21 191.199 1019.47 246.099 975.183 288.048C949.647 308.804 946.68 302.51 919.454 319.549C827.33 388.842 800.079 595.575 608.921 398.505C519.475 302.806 460.174 195.599 372.219 196.353C257.609 208.621 233.442 415.665 99.0676 492.341C-28.932 563.742 -31.3113 597.546 -122.454 662.328" stroke="#FAFAFD" stroke-opacity="0.5" stroke-width="0.286519" stroke-linecap="round" stroke-linejoin="round"/>
<path d="M1668.38 289.645C1555.85 271.203 1527.21 289.614 1455.88 278.597C1363.15 260.533 1324.97 192.594 1224.08 137.381C1057.48 53.5828 1051.82 264.554 940.218 307.078C837.543 348.434 814.006 574.684 650.069 446.578C539.692 353.796 494.054 239.552 398.845 212.046C273.557 186.981 237.226 407.014 120.616 483.639C32.5054 536.756 67.1211 498.223 -75.6947 625.157C-95.3174 642.274 -103.118 648.388 -122.444 662.374" stroke="#FAFAFD" stroke-opacity="0.5" stroke-width="0.286519" stroke-linecap="round" stroke-linejoin="round"/>
<path d="M1668.39 289.69C1526.24 265.683 1480.09 304.328 1388.17 252.463C1293.93 194.118 1195.96 74.2826 1100.02 139.756C1053.63 176.021 1034.75 223.55 994.882 270.457C944.869 323.687 937.182 285.488 885.992 345.732C808.088 444.256 771.608 551.77 642.953 449.796C528.008 352.005 450.801 181.746 340.707 231.956C254.693 279.754 217.951 427.222 121.402 487.413C81.4115 510.208 53.4221 516.456 -3.3892 561.114C-53.0902 601.46 -68.8037 622.908 -122.434 662.425" stroke="#FAFAFD" stroke-opacity="0.5" stroke-width="0.286519" stroke-linecap="round" stroke-linejoin="round"/>
<path d="M1668.4 289.742C1562.89 271.416 1532.38 286.729 1463.58 278.125C1368.77 263.002 1333.41 199.01 1233.24 143.927C1060.52 56.3049 1056.93 270.885 939.669 304.439C833.167 337.836 812.319 585.105 645.273 460.947C539.491 375.81 497.872 269.574 404.505 239.258C324.503 220.245 279.316 299.212 224.066 382.225C110.421 550.006 125.445 444.311 -75.818 624.582C-96.5535 642.876 -103.087 647.971 -122.428 662.471" stroke="#FAFAFD" stroke-opacity="0.5" stroke-width="0.286519" stroke-linecap="round" stroke-linejoin="round"/>
<path d="M1668.41 289.787C1532.24 265.452 1484.81 300.05 1396.6 255.558C1309.69 206.618 1211.95 87.77 1115.2 137.898C1065.09 168.563 1043 218.824 1001.84 266.517C949.192 322.299 939.844 282.555 891.108 332.932C819.836 415.211 781.975 556.583 656.698 478.406C537.506 395.84 466.635 219.26 352.981 253.497C264.471 288.621 225.252 432.15 129.956 491.081C88.4703 514.193 60.0938 516.287 3.43684 556.481C-47.3455 594.132 -61.7075 615.995 -122.413 662.522" stroke="#FAFAFD" stroke-opacity="0.5" stroke-width="0.286519" stroke-linecap="round" stroke-linejoin="round"/>
<path d="M1668.41 289.81C1522.19 263.804 1475.95 304.91 1378.94 245.54C1272.41 175.16 1189.44 82.1306 1095.93 157.509C1048.53 199.835 1030.94 245.459 989.602 282.518C939.214 321.652 930.742 282.469 878.603 347.656C809.052 441.2 768.325 568.186 640.838 477.032C529.812 390.584 453.997 220.029 341.314 272.265C255.612 319.938 219.108 454.372 116.823 502.808C73.4155 521.633 44.6439 526.486 -9.87613 567.341C-57.1599 604.235 -65.4556 618.773 -122.407 662.55" stroke="#FAFAFD" stroke-opacity="0.5" stroke-width="0.286519" stroke-linecap="round" stroke-linejoin="round"/>
<path d="M1668.41 289.81C1556.03 270.435 1518.06 288.877 1447.44 275.365C1324.85 246.901 1218.19 65.7483 1097.29 164.021C1050.7 205.795 1031.11 252.425 990.553 287.103C966.729 304.618 959.257 303.133 932.733 308.493C832.722 337.375 808.568 589.788 652.412 495.263C550.206 426.179 508.221 316.212 413.17 280.905C333.754 258.07 288.478 327.569 229.186 406.843C109.524 563.796 98.8505 471.747 -49.5563 601.165C-91.1205 638.057 -93.8172 640.802 -122.416 662.546" stroke="#FAFAFD" stroke-opacity="0.5" stroke-width="0.286519" stroke-linecap="round" stroke-linejoin="round"/>
<path d="M1668.41 289.81C1559.55 271.64 1524.2 287.741 1455.71 277.753C1363.61 260.793 1324.25 192.981 1227.07 151.736C1067.56 91.6527 1061.01 293.572 940.784 309.798C829.622 328.818 812.42 595.606 654.851 506.961C553.57 442.579 511.776 331.907 416.114 295.031C337.298 271.209 290.982 338.414 237.16 407.723C108.566 572.013 99.6438 476.31 -42.8512 595.951C-79.3651 627.23 -85.3856 634.586 -122.412 662.545" stroke="#FAFAFD" stroke-opacity="0.5" stroke-width="0.286519" stroke-linecap="round" stroke-linejoin="round"/>
<path d="M1668.41 289.81C1555.53 271.585 1526.03 288.343 1455.88 278.591C1328.37 255.994 1229.14 80.4986 1106.63 171.557C1057.13 212.481 1034.86 263.457 992.462 296.276C968.412 311.982 961.176 309.83 933.811 313.67C830.821 337.402 807.655 608.107 648.398 513.371C549.514 447.474 506.329 336.829 410.719 306.522C334.447 288.772 291.835 351.965 232.828 424.322C108.765 574.291 94.803 480.756 -49.3664 602.059C-87.7606 634.937 -89.3017 637.72 -122.413 662.54" stroke="#FAFAFD" stroke-opacity="0.5" stroke-width="0.286519" stroke-linecap="round" stroke-linejoin="round"/>
<path d="M1668.41 289.81C1556.28 272.32 1524.77 288.527 1456.06 279.429C1328.91 257.815 1231.42 85.0871 1107.98 178.028C1057.55 220.054 1036.63 269.138 993.416 300.86C969.137 315.757 961.861 313.227 934.35 316.258C832.143 336.853 809.026 601.202 659.716 530.353C560.887 475.68 518.305 363.018 421.993 323.292C343.396 297.236 296.574 359.615 240.899 425.705C107.563 582.5 96.4645 484.937 -42.6325 597.018C-78.6286 626.761 -84.7076 634.486 -122.417 662.54" stroke="#FAFAFD" stroke-opacity="0.5" stroke-width="0.286519" stroke-linecap="round" stroke-linejoin="round"/>
<path d="M1668.41 289.81C1548.55 272.408 1518.78 291.041 1448.39 279.954C1361.11 262.73 1324.68 200.084 1230.04 166.023C1073.25 117.246 1066.14 314.647 942.966 320.276C831.283 329.877 812.728 606.879 661.89 540.78C566.621 491.361 526.66 386.636 433.268 340.039C305.04 286.072 260.382 462.59 143.553 519.032C83.199 544.65 48.4232 528.84 -35.7413 592.698C-74.5144 623.139 -80.448 631.785 -122.409 662.545" stroke="#FAFAFD" stroke-opacity="0.5" stroke-width="0.286519" stroke-linecap="round" stroke-linejoin="round"/>
<path d="M1668.41 289.81C1547.43 273.45 1519.66 292.493 1448.92 282.52C1361.41 266.711 1326.4 205.281 1231.53 173.201C1075.33 127.989 1067.99 323.353 944.255 326.473C831.17 333.945 813.757 611.399 663.879 550.34C569.114 503.993 529.407 399.631 435.879 352.581C307.66 297.94 262.244 471.381 144.751 524.79C82.8618 549.384 48.9728 531.961 -35.4674 594.015C-73.0371 622.653 -80.9048 632.725 -122.411 662.533" stroke="#FAFAFD" stroke-opacity="0.5" stroke-width="0.286519" stroke-linecap="round" stroke-linejoin="round"/>
<path d="M1668.41 289.81C1549.04 274.856 1518.82 293.727 1449.46 285.085C1332.53 265.924 1236.34 109.931 1113.43 204.212C1035 270.137 1031.31 332.241 945.547 332.682C832.834 337.881 813.819 615.532 665.873 559.918C571.809 516.75 532.102 412.632 438.491 365.135C310.265 309.841 264.243 480.131 145.953 530.566C83.1508 553.82 49.2267 535.304 -35.1899 595.35C-72.8118 623.171 -80.6198 633.154 -122.409 662.545" stroke="#FAFAFD" stroke-opacity="0.5" stroke-width="0.286519" stroke-linecap="round" stroke-linejoin="round"/>
<path d="M1668.41 289.81C1551.05 276.301 1527.29 293.458 1457.95 288.511C1336.21 275.39 1244.61 122.317 1122.03 208.114C1072.08 246.64 1048.63 293.716 1006.22 324.925C983.129 339.284 973.232 339.28 946.84 338.89C830.231 342.015 813.625 631.96 659.32 565.826C563.177 516.864 521.626 405.908 424.127 370.926C348.916 349.881 306.622 402.015 241.823 467.524C109.5 599.067 90.9043 503.218 -48.4301 606.54C-82.0611 632.151 -88.0307 638.878 -122.407 662.55" stroke="#FAFAFD" stroke-opacity="0.5" stroke-width="0.286519" stroke-linecap="round" stroke-linejoin="round"/>
<path d="M1668.41 289.81C1506.35 272.786 1472.59 317.75 1375.18 264.876C1269.41 203.521 1200.32 152.206 1110.6 227.946C1060.7 273.133 1037.64 319.01 993.768 339.96C944.449 357.589 929.714 321.738 878.741 385.749C809.021 481.29 769.683 627.651 652.724 571.529C545.112 511.398 479.148 342.612 356.988 384.966C269.237 421.919 229.504 529.128 118.736 549.394C71.7996 556.605 43.3999 554.992 -7.01393 581.093C-52.6509 606.55 -70.6686 627.662 -122.409 662.545" stroke="#FAFAFD" stroke-opacity="0.5" stroke-width="0.286519" stroke-linecap="round" stroke-linejoin="round"/>
<path d="M1668.41 289.81C1506.16 275.02 1472.66 320.233 1376.26 270.081C1270.98 211.374 1202.77 162.622 1112.73 238.219C1062.31 283.534 1039.48 328.06 995.473 348.153C946.32 364.748 931.038 329.284 880.013 391.86C810.393 485.192 770.443 631.99 654.258 578.901C546.427 521.075 481.994 353.975 359.122 395.222C271.24 431.114 230.775 536.245 119.755 554.291C72.9139 560.555 44.0418 558.35 -6.55476 583.299C-51.8806 607.46 -71.0898 628.892 -122.41 662.539" stroke="#FAFAFD" stroke-opacity="0.5" stroke-width="0.286519" stroke-linecap="round" stroke-linejoin="round"/>
<path d="M1668.41 289.81C1542.73 280.032 1514.56 302.524 1444.11 296.793C1335.83 283.319 1241.32 144.196 1115.02 249.217C1067.38 291.539 1045.42 331.173 1004.44 353.822C979.419 364.794 971.887 361.157 943.591 360.64C835.786 368.208 810.522 640.51 664.016 588.391C569.215 546.87 528.596 438.486 430.898 403.456C352.87 381.433 309.087 435.864 240.251 497.383C111.236 609.721 87.2982 516.935 -54.4294 615.128C-87.453 638.573 -90.5261 642.3 -122.411 662.551" stroke="#FAFAFD" stroke-opacity="0.5" stroke-width="0.286519" stroke-linecap="round" stroke-linejoin="round"/>
<path d="M1668.41 289.81C1543.02 281.749 1514.96 304.732 1444.95 300.852C1337.29 290.325 1244.58 155.359 1117.31 260.203C1069.68 301.992 1047.32 340.864 1006.3 362.733C981.123 373.308 973.396 369.605 945.282 368.765C837.079 374.952 810.758 643.013 665.167 593.921C570.54 554.279 530.572 447.432 432.869 412.926C354.659 391.173 310.15 445.541 241.774 504.698C109.712 615.945 89.6338 517.919 -60.965 621.122C-93.7468 643.999 -95.4292 645.949 -122.41 662.539" stroke="#FAFAFD" stroke-opacity="0.5" stroke-width="0.286519" stroke-linecap="round" stroke-linejoin="round"/>
<path d="M1668.41 289.81C1543.76 283.481 1524.92 304.497 1453.63 305.142C1340.84 301.911 1253.91 169.008 1126.24 265.772C1043.85 332.963 1039.4 383.965 954.818 377.224C839.251 372.478 816.479 635.279 674.657 602.123C580.344 572.087 539.852 465.961 443.235 425.335C363.435 397.59 317.386 448.822 249.928 506.48C111.243 622.544 92.3991 523.654 -53.8753 617.791C-88.2209 640.499 -90.3932 643.503 -122.413 662.54" stroke="#FAFAFD" stroke-opacity="0.5" stroke-width="0.286519" stroke-linecap="round" stroke-linejoin="round"/>
<path d="M1668.41 289.81C1506.27 283.782 1475.33 332.948 1381.21 293.871C1275.37 245.893 1212.59 208.923 1121.89 282.192C1069.35 327.202 1047.17 366.281 1002.8 383.334C953.13 396.883 937.734 362.669 885.675 419.066C812.408 506.227 769.949 652.679 650.417 597.86C547.937 543.173 483.728 389.237 359.769 435.742C274.196 473.229 232.521 563.368 123.765 573.573C74.1366 576.824 43.1052 572.035 -11.6962 596.009C-55.0483 616.589 -73.6368 634.531 -122.408 662.55" stroke="#FAFAFD" stroke-opacity="0.5" stroke-width="0.286519" stroke-linecap="round" stroke-linejoin="round"/>
<path d="M1668.41 289.81C1506.73 286.113 1476.08 336.443 1382.61 300.576C1276.47 255.757 1215.01 221.887 1124.31 293.816C1072.88 336.943 1048.71 376.091 1004.66 392.302C954.745 405.243 939.685 371.583 887.12 426.01C813.007 510.338 769.875 652.956 650.926 600.305C548.205 547.252 485.594 397.039 361.371 443.439C275.78 480.668 233.513 568.937 124.662 577.883C75.2367 580.55 44.0505 575.377 -11.2083 598.352C-55.4285 618.358 -71.9491 634.626 -122.408 662.55" stroke="#FAFAFD" stroke-opacity="0.5" stroke-width="0.286519" stroke-linecap="round" stroke-linejoin="round"/>
<path d="M1668.41 289.81C1536.55 288.728 1523.67 313.501 1448.58 318.28C1344.42 320.587 1258.43 203.862 1126.8 305.783C1074.97 348.141 1050.62 385.824 1006.55 401.361C979.08 408.148 972.924 402.042 944.487 402.376C840.814 414.728 804.928 656.009 659.597 604.556C566.79 564.755 527.994 466.585 431.392 443.223C359.181 430.928 318.504 476.552 247.304 531.253C113.704 630.775 92.1422 537.007 -59.9125 626.161C-93.4808 646.269 -94.0254 647.471 -122.404 662.55" stroke="#FAFAFD" stroke-opacity="0.5" stroke-width="0.286519" stroke-linecap="round" stroke-linejoin="round"/>
<path d="M1668.41 289.81C1540.49 290.656 1523.53 315.819 1449.57 323.052C1346.9 328.922 1262.05 217.425 1129.29 317.749C1077.26 359.174 1052.54 395.554 1008.43 410.425C980.974 416.872 974.831 410.948 946.29 411.036C842.217 422.032 804.456 654.543 659.692 605.012C567.224 566.633 528.724 471.085 432.679 449.409C359.694 438.054 317.457 485.239 248.48 536.902C115.156 633.727 92.6857 542.015 -59.6314 627.512C-93.5642 646.965 -93.7275 647.926 -122.405 662.544" stroke="#FAFAFD" stroke-opacity="0.5" stroke-width="0.286519" stroke-linecap="round" stroke-linejoin="round"/>
<path d="M1668.41 289.81C1506.81 293.294 1478.68 347.548 1387.05 321.921C1282.33 288.525 1224.26 261.515 1131.78 329.722C1079.92 369.929 1054.28 405.351 1010.32 419.49C960.054 430.684 945.65 399.642 891.508 447.092C817.403 518.618 771.664 642.43 659.787 605.468C551.826 562.189 497.573 421.038 372.828 461.075C284.134 494.763 239.796 583.701 127.185 589.991C77.692 591.424 46.233 585.659 -9.70655 605.552C-53.7503 622.69 -71.8751 637.894 -122.404 662.55" stroke="#FAFAFD" stroke-opacity="0.5" stroke-width="0.286519" stroke-linecap="round" stroke-linejoin="round"/>
<path d="M1668.41 289.81C1505.53 295.756 1480.66 351.503 1388.53 329.036C1283.75 299.341 1227.24 274.8 1134.27 341.688C1080.92 381.908 1056.32 415.019 1012.21 428.549C961.902 439.132 947.586 409.011 892.97 454.116C818.16 522.184 771.355 641.406 659.881 605.918C554.026 564.967 498.393 427.506 374.238 467.848C285.372 501.773 240.81 588.724 128.025 594.022C78.3922 595.043 46.9921 589.082 -9.20785 607.946C-53.1635 624.138 -71.6696 638.863 -122.405 662.544" stroke="#FAFAFD" stroke-opacity="0.5" stroke-width="0.286519" stroke-linecap="round" stroke-linejoin="round"/>
<path d="M1668.41 289.81C1512.2 297.693 1483 351.004 1398.16 337.88C1321.52 322.164 1247.81 280.137 1143.54 348.877C1087.83 387.667 1060.35 423.631 1014 437.152C963.655 447.196 949.629 418.281 894.318 460.593C818.749 524.364 770.523 637.493 659.301 603.13C553.428 563.479 499.044 431.647 375.287 472.888C286.432 507.364 241.48 592.302 128.702 597.277C79.284 598.165 47.6994 592.242 -8.72634 610.261C-52.6019 625.639 -71.3161 639.741 -122.404 662.55" stroke="#FAFAFD" stroke-opacity="0.5" stroke-width="0.286519" stroke-linecap="round" stroke-linejoin="round"/>
<path d="M1668.41 289.81C1506.19 300.174 1482.45 358.363 1391.52 343.42C1290.58 322.758 1235.11 301.143 1139.22 365.496C1085.86 402.858 1059.74 433.37 1015.74 445.533C965.466 455.022 951.626 427.531 895.612 466.807C818.991 526.11 769.377 632.158 658.397 598.786C552.446 560.335 499.447 434.745 376.162 477.09C287.125 512.419 242.026 595.234 129.3 600.15C79.3462 601.049 48.3084 595.321 -8.25509 612.525C-52.5232 627.3 -70.0689 640.219 -122.405 662.544" stroke="#FAFAFD" stroke-opacity="0.5" stroke-width="0.286519" stroke-linecap="round" stroke-linejoin="round"/>
<path d="M1668.41 289.81C1559.26 298.062 1545.1 316.326 1469.14 342.267C1386.27 368.382 1370.99 334.275 1272.81 334.093C1120.77 338.396 1089.74 466.956 970.803 454.041C852.772 443.687 811.868 622.303 673.954 598.76C579.072 576.712 544.252 497.064 453.51 474.719C380.023 461.208 335.712 502.008 266.896 550.61C124.712 648.82 104.323 567.157 -43.9601 628.033C-78.3694 642.731 -84.2562 647.014 -122.412 662.545" stroke="#FAFAFD" stroke-opacity="0.5" stroke-width="0.286519" stroke-linecap="round" stroke-linejoin="round"/>
<path d="M1668.41 289.81C1512 303.765 1486.43 360.943 1402.45 358.478C1327.33 352.386 1256.59 319.448 1144.17 389.281C1089.36 424.625 1063.18 451.463 1019.23 462.294C969.126 470.688 955.701 446.014 898.199 479.235C819.651 529.398 767.135 621.525 656.586 590.086C549.952 553.901 500.154 440.933 377.911 485.493C289.067 522.245 243.029 601.098 130.498 605.903C-23.1791 608.743 17.8921 608.195 -122.404 662.55" stroke="#FAFAFD" stroke-opacity="0.5" stroke-width="0.286519" stroke-linecap="round" stroke-linejoin="round"/>
<path d="M1668.41 289.81C1556.23 301.334 1537.27 324.387 1463.67 353.361C1360 391.082 1296.45 311.728 1146.65 401.174C1091.71 435.091 1064.81 460.522 1020.97 470.669C994.075 474.899 987.785 470.825 958.447 469.461C850.596 471.263 797.337 624.81 655.677 585.737C562.802 555.318 529.365 484.882 438.753 478.605C364.706 477.868 321.11 525.901 247.904 571.563C117.18 649.716 116.744 565.713 -93.559 651.544C-104.211 655.771 -106.319 656.62 -122.409 662.545" stroke="#FAFAFD" stroke-opacity="0.5" stroke-width="0.286519" stroke-linecap="round" stroke-linejoin="round"/>
<path d="M1668.41 289.81C1517.42 307.028 1492.37 361.937 1412.85 371.046C1348.51 374.678 1273.97 343.358 1155.92 408.345C1097.3 441.893 1068.78 468.25 1022.56 478.302C972.849 485.652 959.785 464.026 900.625 490.894C819.809 531.578 764.48 608.63 654.297 579.089C547.125 545.299 500.189 445.761 379.357 492.442C290.888 530.586 243.365 605.436 131.494 610.692C-20.6228 614.331 20.6554 612.295 -122.404 662.55" stroke="#FAFAFD" stroke-opacity="0.5" stroke-width="0.286519" stroke-linecap="round" stroke-linejoin="round"/>
<path d="M1668.41 289.81C1558.4 303.47 1543.46 324.038 1465.18 360.636C1363.57 405.411 1308.31 337.036 1151.22 423.157C1092.08 456.476 1062.91 480.231 1016.52 486.667C989.412 488.622 982.092 484.43 953.738 484.264C847.093 489.872 787.167 612.247 644.392 568.927C554.346 537.854 519.906 477.72 431.588 481.595C358.716 488.774 315.031 537.017 241.753 579.421C120.737 646.073 115.12 576.282 -93.3619 652.508C-104.206 656.377 -106.467 657.192 -122.413 662.54" stroke="#FAFAFD" stroke-opacity="0.5" stroke-width="0.286519" stroke-linecap="round" stroke-linejoin="round"/>
<path d="M1668.41 289.81C1560.29 304.331 1544.7 324.362 1465.91 364.142C1391.69 399.713 1380.28 374.502 1276.73 390.36C1152.12 412.027 1098.53 483.469 1018.03 493.925C991.713 495.721 983.193 491.945 955.239 491.476C885.035 493.841 843.654 536.031 767.351 561.233C610.195 608.034 553.605 474.114 431.843 482.821C314.298 497.401 271.431 610.461 116.647 614.198C-6.14399 615.612 -7.86107 625.683 -122.411 662.551" stroke="#FAFAFD" stroke-opacity="0.5" stroke-width="0.286519" stroke-linecap="round" stroke-linejoin="round"/>
<path d="M1668.41 289.81C1570.73 303.937 1554.52 318.595 1473.63 363.851C1372.68 418.641 1324.82 364.566 1169.85 437.856C1061.15 490.816 1057.03 506.77 972.466 499.388C892.114 494.259 848.362 534.545 766.351 556.427C610.862 593.5 552.083 477.792 439.722 483.263C322.879 494.883 271.862 608.54 124.718 615.564C-8.59657 619.924 9.88298 622.073 -122.41 662.539" stroke="#FAFAFD" stroke-opacity="0.5" stroke-width="0.286519" stroke-linecap="round" stroke-linejoin="round"/>
<path d="M1668.41 289.81C1565.41 305.758 1552.58 321.656 1467.37 371.149C1372.53 424.103 1329.67 373.833 1157.99 455.665C1000.93 531.733 1025.05 503.308 942.715 506.11C867.284 511.496 819.061 547.472 735.1 555.907C578.316 567.156 536.542 456.306 410.022 490.194C336.717 513.035 291.158 564.225 214.433 597.771C159.403 620.062 131.221 616.227 70.932 618.973C-3.33943 623.249 -32.0457 636.189 -122.41 662.539" stroke="#FAFAFD" stroke-opacity="0.5" stroke-width="0.286519" stroke-linecap="round" stroke-linejoin="round"/>
<path d="M1668.41 289.81C1574.46 305.029 1556.36 318.308 1474.78 369.364C1375.08 430.431 1343.31 382.468 1167.07 461.958C1006.14 535.8 1029.8 511.682 944.034 512.45C867.115 515.391 818.14 544.107 733.623 548.809C570.113 553.957 532.003 451.279 402.908 493.429C331.11 519.722 283.337 570.189 207.275 600.79C153.112 620.83 126.926 616.496 63.5256 620.8C-4.3861 626.25 -35.5495 638.274 -122.411 662.551" stroke="#FAFAFD" stroke-opacity="0.5" stroke-width="0.286519" stroke-linecap="round" stroke-linejoin="round"/>
<path d="M1668.41 289.81C1569.63 306.414 1555.06 319.945 1468.3 375.618C1368.46 437.767 1379.61 377.215 1126.24 490.169C1023.87 534.768 1010.87 519.6 945.312 518.59C866.454 519.044 816.848 540.468 732.08 541.397C564.172 539.913 529.203 451.13 403.039 494.056C333.093 520.433 287.944 565.941 214.383 597.549C160.119 619.277 132.698 616.99 71.4162 621.316C2.74078 626.813 -26.8167 636.879 -122.41 662.557" stroke="#FAFAFD" stroke-opacity="0.5" stroke-width="0.286519" stroke-linecap="round" stroke-linejoin="round"/>
<path d="M1668.41 289.81C1570.67 306.829 1553.43 320.802 1468.72 377.648C1396.94 424.578 1394.87 404.189 1271.91 442.005C1205.3 463.215 1168.83 482.221 1113.62 504.34C1019.36 540.977 1006.62 524.251 923.187 524.455C838.211 525.839 783.033 541.225 690.95 530.793C535.396 510.571 501.985 442.711 367.568 510.641C295.387 548.844 249.679 591.732 170.547 611.336C68.9014 633.427 132.22 597.811 -122.411 662.551" stroke="#FAFAFD" stroke-opacity="0.5" stroke-width="0.286519" stroke-linecap="round" stroke-linejoin="round"/>
<path d="M1668.41 289.81C1577.88 306.125 1554.83 319 1475.93 374.922C1401.42 427.143 1407.3 407.462 1281.02 448.307C1206.09 473.169 1165.21 494.287 1108.04 514.965C1019.93 545.6 1004.85 531.762 908.596 529.206C818.399 527.422 757.28 535.105 656.915 516.881C512.342 489.049 480.716 443.664 332.891 531.039C128.618 653.7 164.369 598.329 -18.5598 637.855C-36.9886 641.976 -30.4748 640.483 -122.412 662.545" stroke="#FAFAFD" stroke-opacity="0.5" stroke-width="0.286519" stroke-linecap="round" stroke-linejoin="round"/>
<path d="M1668.41 289.81C1573.62 307.47 1552.24 321.044 1469.57 381.707C1401.02 430.883 1404.73 412.72 1268.31 462.062C1156.72 503.031 1097.97 536.62 1020.01 540.854C1006.84 541.139 766.805 527.05 671.236 510.878C536.414 487.126 506.599 464.894 425.195 488.273C351.549 511.834 304.353 554.936 228.454 590.314C131.175 633.42 155.205 598.613 -122.41 662.539" stroke="#FAFAFD" stroke-opacity="0.5" stroke-width="0.286519" stroke-linecap="round" stroke-linejoin="round"/>
<path d="M1668.41 289.81C1508.51 320.392 1498.32 377.567 1414.61 416.903C1388.46 427.9 1378.35 429.095 1313 452.386C1035.5 553.969 1109.03 571.57 726.04 512.361C523.697 479.584 486.143 449.333 353.95 520C104.874 656.459 270.133 574.71 -122.409 662.545" stroke="#FAFAFD" stroke-opacity="0.5" stroke-width="0.286519" stroke-linecap="round" stroke-linejoin="round"/>
<path d="M1668.41 289.81C1572.68 308.313 1550.43 320.963 1469.79 382.756C1412.82 425.865 1415.12 417.642 1313.97 457.038C1158.83 518.705 1089.38 560.7 975.536 551.568C876.814 541.959 683.319 490.257 539.445 476.146C379.034 463.287 310.357 572.346 162.448 609.834C99.0268 624.48 97.1148 614.968 -122.413 662.54" stroke="#FAFAFD" stroke-opacity="0.5" stroke-width="0.286519" stroke-linecap="round" stroke-linejoin="round"/>
<path d="M1668.41 289.81C1500.08 322.687 1498.1 379.897 1408.15 423.309C940.015 631.652 1033.77 556.673 658.179 485.539C364.74 432.192 343.555 571.057 139.828 613.353C94.9674 622.03 41.4894 628.152 -122.41 662.539" stroke="#FAFAFD" stroke-opacity="0.5" stroke-width="0.286519" stroke-linecap="round" stroke-linejoin="round"/>
<path d="M1668.41 289.81C1501.15 322.803 1505.35 371.06 1415.54 421.39C1415.41 421.459 1218.65 512.476 1166.16 532.359C999.894 593.5 935.566 558.626 788.223 511.903C483.485 418.135 424.82 490.1 248.483 574.345C150.003 620.175 113.785 613.991 -122.409 662.545" stroke="#FAFAFD" stroke-opacity="0.5" stroke-width="0.286519" stroke-linecap="round" stroke-linejoin="round"/>
<path d="M1668.41 289.81C1498.32 323.933 1497.47 378.315 1408.86 426.706C1103.74 582.509 1028.99 599.673 863.614 537.473C719.199 482.183 629.931 445.601 491.67 471.005C406.051 488.326 350.761 522.74 269.43 562.752C142.581 624.182 43.9985 629.438 -122.408 662.55" stroke="#FAFAFD" stroke-opacity="0.5" stroke-width="0.286519" stroke-linecap="round" stroke-linejoin="round"/>
<path d="M1668.41 289.81C1497.8 323.93 1498.48 375.642 1408.82 426.496C991.684 648.64 987.502 584.986 761.661 496.483C513.785 401.777 382.494 516.194 219.135 582.951C110.71 625.944 -96.7532 657.532 -122.413 662.54" stroke="#FAFAFD" stroke-opacity="0.5" stroke-width="0.286519" stroke-linecap="round" stroke-linejoin="round"/>
<path d="M1668.41 289.81C1490.35 325.193 1499.01 375.882 1401.68 429.587C1200 536.278 1069.67 637.713 873.254 546.376C696.806 463.129 647.144 435.231 506.517 467.57C318.058 512.749 317.138 570.101 5.20208 639.821C-66.3192 655.29 -71.8908 652.851 -122.416 662.546" stroke="#FAFAFD" stroke-opacity="0.5" stroke-width="0.286519" stroke-linecap="round" stroke-linejoin="round"/>
<path d="M1668.41 289.81C1488.41 325.413 1500.4 372.488 1401.55 428.943C1249.56 512.473 1078.14 641.59 908.532 566.275C760.608 497.588 681.535 424.689 536.013 459.652C274.966 525.144 326.57 577.768 -122.413 662.54" stroke="#FAFAFD" stroke-opacity="0.5" stroke-width="0.286519" stroke-linecap="round" stroke-linejoin="round"/>
<path d="M1668.41 289.81C1487.1 325.312 1502.18 368.822 1401.41 428.304C1263.65 506.357 1209.31 556.182 1098.85 583.004C993.181 606.811 959.833 595.015 909.483 570.848C761.235 496.334 681.703 415.137 535.701 458.153C207.377 557.93 271.565 589.461 -122.409 662.545" stroke="#FAFAFD" stroke-opacity="0.5" stroke-width="0.286519" stroke-linecap="round" stroke-linejoin="round"/>
<path d="M1668.41 289.81C1583.92 306.569 1553.5 309.201 1475.35 372.146C1398.05 435.779 1425.01 410.439 1332.2 469.844C1230.27 536.384 1171.18 578.994 1055.06 597.036C984.324 607.215 963.613 609.551 857.266 544.434C567.613 365.371 637.887 437.89 78.9078 619.9C-37.113 656.224 -59.2247 651.006 -122.414 662.54" stroke="#FAFAFD" stroke-opacity="0.5" stroke-width="0.286519" stroke-linecap="round" stroke-linejoin="round"/>
<path d="M1668.41 289.81C1584.64 306.349 1553.67 307.547 1474.91 370.008C1389.94 438.668 1421.11 409.625 1338.8 464.134C1232.55 535.601 1177.47 582.045 1056.23 602.675C985.286 613.926 964.702 616.664 857.951 547.729C628.67 398.195 611.293 431.338 485.101 476.893C-100.707 684.883 24.1361 635.987 -122.409 662.545" stroke="#FAFAFD" stroke-opacity="0.5" stroke-width="0.286519" stroke-linecap="round" stroke-linejoin="round"/>
<path d="M1668.41 289.81C1609.74 301.319 1580.48 302.628 1528.95 330.359C1475.91 360.782 1456.78 386.349 1407.14 418.429C1271.64 502.845 1231.16 549.577 1138.44 586.218C995.431 639.622 948.766 609.596 885.824 569.39C786.089 503.925 688.512 421.518 586.66 441.164C543.541 451.578 540.071 461.568 456.66 489.837C389.926 512.024 350.657 521.28 244.94 557.321C-82.0635 671.641 66.3614 628.483 -122.409 662.545" stroke="#FAFAFD" stroke-opacity="0.5" stroke-width="0.286519" stroke-linecap="round" stroke-linejoin="round"/>
<path d="M1668.41 289.81C1592.55 304.606 1557.02 303.447 1480.66 360.175C1318.78 483.589 1503.63 341.54 1250.37 525.52C1173.68 580.501 1118.47 606.757 1020.96 620.182C886.006 634.816 747.337 405.301 586.608 440.895C532.661 455.639 537.237 470.913 398.655 510.356C113.29 589.54 106.279 612.514 5.38094 640.646C-54.7119 656.49 -70.4326 653.213 -122.408 662.55" stroke="#FAFAFD" stroke-opacity="0.5" stroke-width="0.286519" stroke-linecap="round" stroke-linejoin="round"/>
<path d="M1668.41 289.81C1596.65 303.903 1560.2 301.727 1486.94 352.997C1458.39 373.745 1446.51 384.842 1419.69 403.901C1238.42 527.092 1234.66 547.604 1154.32 587.685C1108.89 609.262 1025.16 635.349 975.2 624.763C901.221 603.628 832.849 527.781 732.867 470.374C589.039 391.966 575.474 463.442 421.191 506.463C334.044 530.073 273.678 538.575 156.799 582.709C88.5966 608.818 62.2241 624.05 5.35384 640.55C-54.3282 656.845 -69.493 653.072 -122.417 662.54" stroke="#FAFAFD" stroke-opacity="0.5" stroke-width="0.286519" stroke-linecap="round" stroke-linejoin="round"/>
<path d="M1668.41 289.81C1549.7 313.037 1553.06 284.144 1250.65 526.872C1174.64 587.172 1121.13 616.238 1023.53 632.549C922.923 646.089 847.723 530.705 715.2 460.299C580.081 393.171 575.901 471.603 406.889 512.556C325.021 531.785 264.016 539.135 163.433 577.171C97.6713 602.576 74.3261 617.594 19.9615 635.928C-45.5963 656.883 -67.5906 652.777 -122.412 662.545" stroke="#FAFAFD" stroke-opacity="0.5" stroke-width="0.286519" stroke-linecap="round" stroke-linejoin="round"/>
<path d="M1668.41 289.81C1595.11 304.096 1557.78 299.019 1479.17 353.049C1328.96 459.706 1358.45 434.016 1296.72 486.401C1244.23 531.368 1207.61 564.394 1155.62 593.928C1110.91 618.162 1028.37 648.319 977.822 637.357C902.96 615.132 833.683 532.711 733.164 471.8C585.106 386.801 575.079 474.57 429.904 510.913C351.095 529.582 291.144 531.746 199.085 561.441C133.501 583.383 105.441 600.078 55.8786 621.469C-30.2749 657.554 -60.2576 651.435 -122.412 662.545" stroke="#FAFAFD" stroke-opacity="0.5" stroke-width="0.286519" stroke-linecap="round" stroke-linejoin="round"/>
<path d="M1668.41 289.81C1597.95 303.489 1560.28 298.314 1485.45 345.859C1247.53 503.646 1256.79 534.849 1156.11 596.293C1111.39 622.368 1030.29 654.618 979.096 643.48C903.878 620.931 834.252 536.078 733.656 474.166C584.299 387.201 574.42 482.57 430.785 515.149C353.951 531.355 293.742 530.563 205.853 556.547C142.584 576.157 111.971 594.228 62.7507 617.077C-28.077 658.167 -60.323 651.413 -122.413 662.54" stroke="#FAFAFD" stroke-opacity="0.5" stroke-width="0.286519" stroke-linecap="round" stroke-linejoin="round"/>
<path d="M1668.41 289.81C1597.26 303.566 1559.95 297.497 1484.93 343.345C1254.88 490.405 1272.49 519.882 1163.46 594.18C1118.91 623.273 1039.93 657.972 988.52 651.38C877.053 627.055 746.436 422.856 610.432 443.164C543.482 457.699 540.8 497.175 431.671 519.39C276.69 548.102 270.332 512.88 69.5517 612.342C-26.7809 659.105 -57.4912 650.859 -122.409 662.545" stroke="#FAFAFD" stroke-opacity="0.5" stroke-width="0.286519" stroke-linecap="round" stroke-linejoin="round"/>
<path d="M1668.41 289.81C1597.39 303.485 1559.89 296.509 1484.41 340.831C1265.42 475.559 1273.5 516.77 1163.9 596.284C1120.07 626.807 1042.08 664.108 989.797 657.514C877.977 633.019 746.794 423.258 611.012 445.946C543.617 461.894 540.187 504.262 432.554 523.631C276.064 548.72 267.786 508.229 69.2527 610.905C-26.5262 659.421 -57.3901 650.814 -122.408 662.55" stroke="#FAFAFD" stroke-opacity="0.5" stroke-width="0.286519" stroke-linecap="round" stroke-linejoin="round"/>
<path d="M1668.41 289.81C1595.42 303.831 1557.09 295.017 1476.96 342.411C1244.81 485.256 1283.11 510.444 1157.59 603.385C1113.35 634.808 1035.86 673.479 982.923 661.848C870.124 627.064 738.577 416.135 604.201 450.617C540.54 471.492 533.926 514.279 425.866 528.89C281.189 545.589 249.984 510.192 75.9532 605.686C-24.8231 660.018 -54.1618 650.178 -122.409 662.545" stroke="#FAFAFD" stroke-opacity="0.5" stroke-width="0.286519" stroke-linecap="round" stroke-linejoin="round"/>
<path d="M1668.41 289.81C1598.47 303.225 1559.95 294.85 1483.4 335.985C1275.58 453.382 1277.53 507.14 1164.56 599.442C1121.01 633.659 1045.78 675.258 992.129 668.717C880.411 644.266 748.338 426.035 612.603 453.591C544.446 472.398 540.233 519.343 434.569 533.312C359.297 541.46 300.35 528.533 218.738 543.634C83.8798 571.602 86.0513 634.068 -99.8455 658.735C-107.633 659.927 -108.102 659.936 -122.409 662.545" stroke="#FAFAFD" stroke-opacity="0.5" stroke-width="0.286519" stroke-linecap="round" stroke-linejoin="round"/>
<path d="M1668.41 289.81C1551.8 312.149 1565.91 282.785 1413.73 375.236C1367.45 402.748 1348.79 412.615 1299.41 461.905C1250.54 511.727 1113.46 688.044 993.145 673.615C880.533 649.065 749.481 428.766 613.691 458.837C545.405 478.974 540.395 527.773 435.744 538.973C359.502 545.165 300.247 528.876 218.391 541.981C84.7741 566.669 78.5925 637.423 -92.2832 657.69C-103.072 659.139 -105.176 659.386 -122.411 662.551" stroke="#FAFAFD" stroke-opacity="0.5" stroke-width="0.286519" stroke-linecap="round" stroke-linejoin="round"/>
<path d="M1668.41 289.81C1597.7 303.355 1559.75 293.905 1482.44 331.39C1355.03 396.558 1318.58 437.354 1292.24 464.856C1242.99 517.445 1103.32 702.181 986.02 676.728C871.475 641.332 742.251 424.078 607.477 466.357C542.432 491.524 534.932 539.266 429.227 545.041C354.742 547.262 296.634 529.669 218.046 540.31C90.7004 560.951 71.7801 637.841 -92.2931 657.627C-103.177 659.113 -105.345 659.38 -122.411 662.533" stroke="#FAFAFD" stroke-opacity="0.5" stroke-width="0.286519" stroke-linecap="round" stroke-linejoin="round"/>
<path d="M1668.41 289.81C1597.31 303.432 1559.86 293.321 1481.96 329.092C1357.56 389.483 1320.96 428.996 1285.16 468.192C1231.1 528.431 1095.2 715.072 978.71 679.052C862.619 633.04 734.863 420.412 601.413 474.65C540.498 503.787 529.216 550.329 422.577 550.517C346.843 548.846 288.182 528.817 210.132 539.715C84.5741 560.983 83.7203 633.227 -99.8736 658.633C-107.767 659.884 -108.051 659.872 -122.417 662.54" stroke="#FAFAFD" stroke-opacity="0.5" stroke-width="0.286519" stroke-linecap="round" stroke-linejoin="round"/>
<path d="M1668.41 289.81C1595.99 303.664 1556.61 292.286 1474.39 330.056C1355.53 387.42 1325.78 418.332 1284.44 464.743C1230.51 526.461 1096.68 720.118 979.731 683.955C863.165 637.619 736.121 423.207 602.558 480.152C543.218 509.752 530.892 555.762 431.496 555.959C312.49 552.892 234.604 498.416 101.674 579.669C-31.0674 662.823 -16.8514 642.775 -122.409 662.545" stroke="#FAFAFD" stroke-opacity="0.5" stroke-width="0.286519" stroke-linecap="round" stroke-linejoin="round"/>
<path d="M1668.41 289.81C1596.16 303.672 1556.47 292.298 1473.99 328.147C1356.32 381.98 1326.12 412.909 1283.72 461.288C1226.87 527.515 1102.6 713.859 988.671 689.464C873.466 653.89 745.667 432.855 610.982 483.199C547.243 511.728 537.603 561.17 440.616 562.347C318.476 559.818 237.28 493.225 101.256 577.627C-31.9295 662.532 -16.4731 642.572 -122.409 662.545" stroke="#FAFAFD" stroke-opacity="0.5" stroke-width="0.286519" stroke-linecap="round" stroke-linejoin="round"/>
<path d="M1668.41 289.81C1597.7 303.41 1559.69 292.94 1480.77 323.38C1358.78 373.425 1322.37 412.244 1283 457.833C1220.47 531.881 1097.24 725.4 980.893 689.542C863.772 643.119 739.144 429.852 605.173 492.717C546.403 524.506 532.017 572.67 434.108 568.507C306.44 559.058 232.488 490.339 93.966 580.03C-28.0815 661.142 -26.4076 644.324 -122.409 662.545" stroke="#FAFAFD" stroke-opacity="0.5" stroke-width="0.286519" stroke-linecap="round" stroke-linejoin="round"/>
<path d="M1668.41 289.81C1611.95 300.7 1427.08 289.131 1288.53 447.035C1222 525.21 1111.51 708.899 997.909 696.487C885.763 672.637 761.533 454.332 627.984 490.099C556.823 514.522 550.515 570.611 458.917 575.489C381.021 576.321 316.83 539.735 232.403 534.479C95.8661 530.26 72.2122 633.017 -69.6205 654.341C-94.8526 657.725 -96.5929 657.6 -122.41 662.539" stroke="#FAFAFD" stroke-opacity="0.5" stroke-width="0.286519" stroke-linecap="round" stroke-linejoin="round"/>
<path d="M1668.41 289.81C1595.43 303.923 1556.17 292.497 1472.85 322.656C1358.2 366.558 1326.47 397.353 1281.56 450.923C1216.19 530.904 1103.74 721.402 990.324 697.405C876.867 662.58 754.024 450.357 621.98 498.641C554.832 528.206 545.284 582.923 452.539 582.235C376.206 578.542 313.738 541.592 232.312 534.046C95.364 525.844 72.5847 632.101 -69.6501 654.199C-95.4144 657.765 -96.544 657.56 -122.409 662.545" stroke="#FAFAFD" stroke-opacity="0.5" stroke-width="0.286519" stroke-linecap="round" stroke-linejoin="round"/>
<path d="M1668.41 289.81C1603.21 302.453 1419.91 289.748 1293.32 432.624C1219.52 518.952 1114.3 714.107 999.009 701.772C886.932 678.133 763.474 460.233 630.44 501.894C559.471 529.453 551.91 587.242 461.75 589.097C385.524 587.149 323.342 547.379 240.209 534.591C98.2959 517.21 75.6677 627.206 -62.1487 652.845C-91.1548 657.479 -88.0348 655.878 -122.413 662.54" stroke="#FAFAFD" stroke-opacity="0.5" stroke-width="0.286519" stroke-linecap="round" stroke-linejoin="round"/>
<path d="M1668.41 289.81C1594.84 304.148 1412.55 288.866 1286.44 437.012C1215.4 523.414 1106.48 724.514 990.876 700.056C877.183 665.227 756.381 455.155 624.369 510.123C556.587 543.336 544.445 602.881 447.42 595.054C324.964 580.137 232.701 483.966 106.019 563.134C-21.4692 647.008 27.1328 633.365 -122.409 662.545" stroke="#FAFAFD" stroke-opacity="0.5" stroke-width="0.286519" stroke-linecap="round" stroke-linejoin="round"/>
<path d="M1668.41 289.81C1591.62 304.836 1412.1 290.649 1292.1 426.763C1214.89 517.721 1121.44 702.545 1006.92 702.355C894.118 690.056 768.954 461.751 632.61 512.304C560.697 544.312 550.873 606.795 456.756 602.497C376.458 595.097 309.037 545.872 224.333 533.101C86.7784 517.52 81.9271 631.34 -92.3962 657.113C-103.398 658.891 -105.629 659.248 -122.406 662.538" stroke="#FAFAFD" stroke-opacity="0.5" stroke-width="0.286519" stroke-linecap="round" stroke-linejoin="round"/>
<path d="M1668.41 289.81C1568.74 309.384 1541.68 286.305 1399.41 343.866C1243.75 408.653 1206.57 606.668 1065.65 685.314C1017.48 709.913 992.129 708.456 938.65 673.585C832.841 599.57 739.805 474.992 633.687 517.48C550.607 556.893 542.424 645.355 392.66 593.765C284.06 554.092 209.326 498.532 112.139 555.109C66.8176 583.486 40.8227 611.422 -11.1545 636.004C-53.7024 654.49 -65.7132 651.351 -122.409 662.545" stroke="#FAFAFD" stroke-opacity="0.5" stroke-width="0.286519" stroke-linecap="round" stroke-linejoin="round"/>
<path d="M1668.41 289.81C1573.7 308.505 1537.39 288.886 1406.13 338.761C1238.56 403.939 1209.58 603.721 1065.57 684.973C1017.76 709.653 992.306 708.229 938.601 673.369C831.593 598.878 740.692 477.079 634.76 522.652C551.808 564.459 542.145 653.811 393.824 599.375C285.195 557.098 208.917 496.857 111.748 553.245C66.6079 581.537 40.7214 610.045 -11.2992 635.326C-53.3202 654.101 -65.4439 651.241 -122.412 662.545" stroke="#FAFAFD" stroke-opacity="0.5" stroke-width="0.286519" stroke-linecap="round" stroke-linejoin="round"/>
<path d="M1668.41 289.81C1571.32 309.055 1532.24 289.298 1398.45 339.26C1240.32 400.676 1203.01 612.988 1058.49 688.28C1016.17 708.163 990.46 709.089 929.468 666.847C821.941 588.396 733.575 475.628 628.831 531.559C550.062 579.187 536.569 663.406 386.475 601.464C275.605 553.485 202.023 494.503 104.475 555.699C59.253 585.959 32.9871 614.237 -18.5446 637.911C-56.9892 653.99 -66.9854 651.473 -122.409 662.545" stroke="#FAFAFD" stroke-opacity="0.5" stroke-width="0.286519" stroke-linecap="round" stroke-linejoin="round"/>
<path d="M1668.41 289.81C1570.33 309.327 1521.79 291.325 1390.96 340.706C1285.26 383.192 1241.86 491.491 1156.76 599.405C1042.78 739.525 980.366 701.185 919.667 657.187C815.309 578.19 730.396 478.02 629.652 535.486C552.364 584.971 536.076 670.95 387.663 607.153C281.875 559.365 205.059 495.976 111.033 549.795C63.9892 579.126 36.3889 611.351 -18.6691 637.295C-56.6326 653.63 -66.8158 651.396 -122.406 662.538" stroke="#FAFAFD" stroke-opacity="0.5" stroke-width="0.286519" stroke-linecap="round" stroke-linejoin="round"/>
<path d="M1668.41 289.81C1552.75 312.908 1399.55 290.013 1289.47 414.13C1208.94 508.763 1114.01 708.241 997.455 694.309C884.469 669.361 769.252 464.485 637.35 535.097C567.538 577.542 552.455 642.493 463.71 635.923C384.161 625.547 318.68 566.86 233.065 537.678C88.6865 493.967 71.809 627.278 -77.4228 654.282C-103.057 658.63 -100.638 658.215 -122.415 662.546" stroke="#FAFAFD" stroke-opacity="0.5" stroke-width="0.286519" stroke-linecap="round" stroke-linejoin="round"/>
<path d="M1668.41 289.81C1536.8 316.228 1394.89 288.567 1282.8 419.51C1205.11 513.956 1105.96 715.474 988.62 689.219C870.303 652.05 759.752 451.336 624.461 547.957C562.799 595.986 540.975 657.005 448.961 639.849C367.309 620.466 300.39 558.021 216.65 533.6C82.4757 500.494 75.8902 627.487 -92.4672 656.789C-105.564 659.152 -104 658.874 -122.407 662.55" stroke="#FAFAFD" stroke-opacity="0.5" stroke-width="0.286519" stroke-linecap="round" stroke-linejoin="round"/>
<path d="M1668.41 289.81C1527.78 318.147 1393.04 289.072 1282.39 417.532C1204.58 511.551 1105.56 712.617 987.933 685.918C869.206 648.353 760.54 450.345 625.299 551.982C565.002 601.142 543.335 659.167 458.407 647.823C377.407 632.425 310.904 567.973 225.114 536.853C86.4735 492.375 68.4472 626.056 -77.4647 654.047C-103.528 658.692 -101.055 658.249 -122.41 662.539" stroke="#FAFAFD" stroke-opacity="0.5" stroke-width="0.286519" stroke-linecap="round" stroke-linejoin="round"/>
<path d="M1668.41 289.81C1564.69 310.791 1498.2 299.287 1389.91 335.655C1284.44 374.064 1239.84 482.757 1154.63 589.155C1037.68 730.63 972.613 683.676 917.013 644.434C809.087 565.192 731.508 479.371 632.826 550.737C557.397 610.333 534.184 700.316 392.422 630.014C284.081 573.3 203.83 492.158 109.737 543.57C64.5984 570.958 40.2819 601.667 -12.1548 631.198C-52.6855 652.321 -68.7087 651.701 -122.407 662.55" stroke="#FAFAFD" stroke-opacity="0.5" stroke-width="0.286519" stroke-linecap="round" stroke-linejoin="round"/>
<path d="M1668.41 289.81C1498.2 323.977 1387.28 289.164 1275.48 421.711C1197.05 517.788 1097.91 713.17 977.734 674.36C858.158 626.212 757.406 449.481 626.664 558.556C565.49 613.329 541.205 675.628 452.915 658.863C370.522 638.522 302.958 568.407 217.114 535.847C79.5464 489.998 94.0608 618.649 -122.409 662.545" stroke="#FAFAFD" stroke-opacity="0.5" stroke-width="0.286519" stroke-linecap="round" stroke-linejoin="round"/>
<path d="M1668.41 289.81C1552.66 313.148 1445.84 305.788 1361.09 346.792C1264.98 398.482 1214.5 521.246 1127.84 610.047C1015.88 719.471 966.584 673.219 859.339 591.717C752.331 511.582 693.892 490.632 607.822 580.215C530.884 663.263 499.114 707.42 359.383 620.89C232.103 540.043 176.154 486.575 75.1625 564.458C-34.1143 651.299 -27.1296 643.166 -122.409 662.545" stroke="#FAFAFD" stroke-opacity="0.5" stroke-width="0.286519" stroke-linecap="round" stroke-linejoin="round"/>
<path d="M1668.41 289.81C1557.47 312.276 1511.85 305.885 1426.53 324.577C1226.22 371.621 1199.65 614.89 1030.45 665.803C895.614 698.168 781.235 404.003 614.824 576.479C558.187 637.743 528.452 693.527 438.962 666.633C306.515 619.724 212.87 466.3 88.32 552.905C-14.379 628.681 10.4434 635.417 -122.409 662.545" stroke="#FAFAFD" stroke-opacity="0.5" stroke-width="0.286519" stroke-linecap="round" stroke-linejoin="round"/>
<path d="M1668.41 289.81C1544.82 314.951 1504.57 307.091 1419.09 326.219C1228.34 372.097 1192.57 622.46 1021.91 662.144C1001.91 665.265 988.361 664.517 957.007 649.564C822.785 577.639 744.873 439.569 615.437 579.421C557.954 643.984 527.939 699.142 440.242 672.784C358.59 643.67 292.115 570.313 209.284 535.621C98.661 494.942 68.4777 590.623 -33.7628 639.615C-62.4666 652.019 -69.4973 651.782 -122.412 662.545" stroke="#FAFAFD" stroke-opacity="0.5" stroke-width="0.286519" stroke-linecap="round" stroke-linejoin="round"/>
<path d="M1668.41 289.81C1518.3 320.476 1438.27 309.119 1360.78 345.292C1266.85 394.065 1217.45 506.166 1131.88 592.022C1014.11 704.583 959.27 651.639 865.298 582.989C757.029 504.686 700.34 487.542 616.05 582.351C571.581 634.171 549.2 672.846 497.146 684.334C449.227 690.799 407.8 666.85 362.644 636.575C234.447 548.085 175.976 481.574 74.2952 560.309C-35.0112 648.137 -24.4854 642.532 -122.409 662.545" stroke="#FAFAFD" stroke-opacity="0.5" stroke-width="0.286519" stroke-linecap="round" stroke-linejoin="round"/>
<path d="M1668.41 289.81C1506.98 322.643 1435.4 310.823 1360.78 345.298C1266.81 393.603 1216.96 504.15 1130.96 587.598C1012.93 696.657 958.855 644.885 863.92 576.37C754.075 498.217 699.195 487.209 616.47 584.369C571.865 638.465 549.225 677.313 498.265 689.716C450.43 697.145 409.088 673.005 363.765 641.962C233.758 550.084 175.455 480.493 74.0292 559.032C-30.3818 643.123 -18.1505 641.38 -122.409 662.545" stroke="#FAFAFD" stroke-opacity="0.5" stroke-width="0.286519" stroke-linecap="round" stroke-linejoin="round"/>
<path d="M1668.41 289.81C1488.12 326.919 1428.6 310.805 1353.75 348.897C1261.41 400.532 1210.17 511.69 1123.46 589.022C1009.19 685.924 962.429 640.537 862.532 569.717C750.408 491.283 697.526 487.58 616.883 586.371C573.222 641.407 552.346 676.711 506.759 693.129C365.664 730.77 234.739 447.032 87.2222 547.614C40.3897 581.915 12.8313 616.635 -41.1034 641.726C-64.9629 651.671 -67.9291 651.408 -122.407 662.538" stroke="#FAFAFD" stroke-opacity="0.5" stroke-width="0.286519" stroke-linecap="round" stroke-linejoin="round"/>
<path d="M1668.41 289.81C1481.99 327.944 1431.65 313.22 1360.79 345.338C1263.81 394.132 1213.23 506.335 1122.5 584.403C1003.95 681.264 959.333 630.576 852.075 556.821C739.227 481.363 689.976 493.22 611.186 596.377C528.27 706.811 490.708 741.788 366.013 652.748C244.214 562.754 177.799 479.993 80.205 551.293C-24.5741 632.451 -0.959942 637.576 -122.409 662.545" stroke="#FAFAFD" stroke-opacity="0.5" stroke-width="0.286519" stroke-linecap="round" stroke-linejoin="round"/>
<path d="M1668.41 289.81C1397.12 345.39 1376.59 293.591 1248.42 441.274C1172 530.633 1114.88 616.109 1007.66 631.11C917.668 632.925 823.197 487.059 717.179 507.181C594.693 540.883 579.316 758.879 429.629 696.579C342.036 654.967 269.81 562.263 184.623 529.334C134.697 513.381 108.119 526.889 66.5709 560.608C-39.2681 649.463 -33.4889 644.15 -122.409 662.545" stroke="#FAFAFD" stroke-opacity="0.5" stroke-width="0.286519" stroke-linecap="round" stroke-linejoin="round"/>
<path d="M1668.41 289.81C1590.66 305.994 1582.65 310.89 1510.75 317.736C1446.5 323.441 1404.91 325.793 1360.79 345.379C1266.78 391.712 1215.2 495.839 1127.26 569.846C1002.69 669.308 949.575 611.545 858.378 549.758C743.122 473.278 694.315 487.047 618.13 592.363C531.353 714.687 495.388 757.956 368.25 663.524C239.128 564.051 175.643 474.393 72.9641 553.93C-32.428 639.659 -13.1948 639.813 -122.408 662.545" stroke="#FAFAFD" stroke-opacity="0.5" stroke-width="0.286519" stroke-linecap="round" stroke-linejoin="round"/>
</g>
<defs>
<clipPath id="clip0_604_49">
<rect width="1829.37" height="767.942" fill="white" transform="translate(-212.99 227.77) rotate(-11.7575)"/>
</clipPath>
</defs>
</svg>
