<svg xmlns="http://www.w3.org/2000/svg" width="31" height="31" viewBox="0 0 31 31" fill="none">
<path d="M15.5 27.9L14.7684 28.6316C14.8644 28.7278 14.9784 28.8042 15.104 28.8563C15.2295 28.9083 15.3641 28.9352 15.5 28.9352C15.6359 28.9352 15.7705 28.9083 15.896 28.8563C16.0216 28.8042 16.1356 28.7278 16.2316 28.6316L15.5 27.9ZM15.5 7.23332L14.7684 7.96492C14.8644 8.06115 14.9784 8.1375 15.104 8.18959C15.2295 8.24168 15.3641 8.2685 15.5 8.2685C15.6359 8.2685 15.7705 8.24168 15.896 8.18959C16.0216 8.1375 16.1356 8.06115 16.2316 7.96492L15.5 7.23332ZM16.2316 27.1684L3.90393 14.8428L2.4428 16.3039L14.7684 28.6316L16.2316 27.1684ZM27.0961 14.8428L14.7684 27.1684L16.2316 28.6316L28.5572 16.3039L27.0961 14.8428ZM12.7761 5.97058L14.7684 7.96492L16.2316 6.50172L14.2373 4.50945L12.7761 5.97058ZM16.2316 7.96492L18.2239 5.97058L16.7627 4.50945L14.7684 6.50172L16.2316 7.96492ZM22.6589 2.06665C20.4476 2.06665 18.3272 2.94498 16.7627 4.50945L18.2239 5.97058C19.4004 4.79466 20.9955 4.13385 22.6589 4.13332V2.06665ZM28.9333 10.4077C28.9333 12.0714 28.272 13.6669 27.094 14.8428L28.5572 16.3039C30.1209 14.7401 30.9996 12.6192 31 10.4077H28.9333ZM31 10.4077C31 8.19553 30.1212 6.07395 28.557 4.50969C26.9927 2.94544 24.8711 2.06665 22.6589 2.06665V4.13332C24.323 4.13332 25.9189 4.79437 27.0956 5.97105C28.2723 7.14772 28.9333 8.74364 28.9333 10.4077H31ZM8.34107 4.13332C10.0047 4.13332 11.6002 4.79465 12.7761 5.97265L14.2373 4.50945C12.6734 2.94573 10.5526 2.06707 8.34107 2.06665V4.13332ZM2.06667 10.4077C2.06667 8.74364 2.72772 7.14772 3.9044 5.97105C5.08107 4.79437 6.67699 4.13332 8.34107 4.13332V2.06665C6.12888 2.06665 4.0073 2.94544 2.44304 4.50969C0.878788 6.07395 0 8.19553 0 10.4077H2.06667ZM3.90393 14.8428C3.32111 14.2605 2.86076 13.5692 2.54517 12.8082C2.22957 12.0472 2.06698 11.2315 2.06667 10.4077H0C0 12.619 0.878333 14.7394 2.4428 16.3039L3.90393 14.8428Z" fill="#311067"/>
</svg>